<?xml version="1.0" encoding="UTF-8" standalone="no"?>
<!DOCTYPE svg PUBLIC "-//W3C//DTD SVG 1.1//EN"
 "http://www.w3.org/Graphics/SVG/1.1/DTD/svg11.dtd">
<!-- Generated by graphviz version 2.38.0 (20140413.2041)
 -->
<!-- Title: uks.debuggen.microshop.MicroShop Pages: 1 -->
<svg width="265px" height="283px"
 viewBox="0.00 0.00 265.00 283.00" xmlns="http://www.w3.org/2000/svg" xmlns:xlink="http://www.w3.org/1999/xlink">
<g id="graph0" class="graph" transform="scale(1.0 1.0) rotate(0) translate(4 279)">
<title>uks.debuggen.microshop.MicroShop</title>
<polygon fill="white" stroke="none" points="-4,4 -4,-279 261,-279 261,4 -4,4"/>
<!-- red_shoes -->
<g id="node1" class="node"><title>red_shoes</title>
<polygon fill="none" stroke="black" points="16,-253.5 16,-270.5 115,-270.5 115,-253.5 16,-253.5"/>
<text text-anchor="start" x="19" y="-260.5" font-family="Times New Roman,serif" text-decoration="underline" font-size="10.00">red_shoes :MSProduct</text>
<polygon fill="none" stroke="black" points="16,-203.5 16,-253.5 115,-253.5 115,-203.5 16,-203.5"/>
<text text-anchor="start" x="24.5" y="-242.5" font-family="Times New Roman,serif" font-size="10.00">id = &quot;red_shoes&quot;</text>
<text text-anchor="start" x="24.5" y="-231.5" font-family="Times New Roman,serif" font-size="10.00">name = &quot;red_shoes&quot;</text>
<text text-anchor="start" x="24.5" y="-220.5" font-family="Times New Roman,serif" font-size="10.00">price = &quot;$42&quot;</text>
<text text-anchor="start" x="24.5" y="-209.5" font-family="Times New Roman,serif" font-size="10.00">state = &quot;in stock&quot;</text>
</g>
<!-- o0925_1 -->
<g id="node3" class="node"><title>o0925_1</title>
<polygon fill="none" stroke="black" points="8,-142.5 8,-159.5 122,-159.5 122,-142.5 8,-142.5"/>
<text text-anchor="start" x="34.5" y="-149.5" font-family="Times New Roman,serif" text-decoration="underline" font-size="10.00">o0925_1 :Order</text>
<polygon fill="none" stroke="black" points="8,-92.5 8,-142.5 122,-142.5 122,-92.5 8,-92.5"/>
<text text-anchor="start" x="11" y="-131.5" font-family="Times New Roman,serif" font-size="10.00">address = &quot;Wonderland 1&quot;</text>
<text text-anchor="start" x="11" y="-120.5" font-family="Times New Roman,serif" font-size="10.00">code = &quot;o0925_1&quot;</text>
<text text-anchor="start" x="11" y="-109.5" font-family="Times New Roman,serif" font-size="10.00">id = &quot;o0925_1&quot;</text>
<text text-anchor="start" x="11" y="-98.5" font-family="Times New Roman,serif" font-size="10.00">state = &quot;shipping&quot;</text>
</g>
<!-- red_shoes&#45;&gt;o0925_1 -->
<g id="edge1" class="edge"><title>red_shoes&#45;&gt;o0925_1</title>
<path fill="none" stroke="black" d="M65,-199.901C65,-188.398 65,-175.697 65,-164.188"/>
<text text-anchor="middle" x="52" y="-167.188" font-family="Times New Roman,serif" font-size="10.00">orders</text>
<text text-anchor="middle" x="49" y="-191.901" font-family="Times New Roman,serif" font-size="10.00">product</text>
</g>
<!-- blue_jeans -->
<g id="node2" class="node"><title>blue_jeans</title>
<polygon fill="none" stroke="black" points="149,-253.5 149,-270.5 249,-270.5 249,-253.5 149,-253.5"/>
<text text-anchor="start" x="152" y="-260.5" font-family="Times New Roman,serif" text-decoration="underline" font-size="10.00">blue_jeans :MSProduct</text>
<polygon fill="none" stroke="black" points="149,-203.5 149,-253.5 249,-253.5 249,-203.5 149,-203.5"/>
<text text-anchor="start" x="157" y="-242.5" font-family="Times New Roman,serif" font-size="10.00">id = &quot;blue_jeans&quot;</text>
<text text-anchor="start" x="157" y="-231.5" font-family="Times New Roman,serif" font-size="10.00">name = &quot;blue_jeans&quot;</text>
<text text-anchor="start" x="157" y="-220.5" font-family="Times New Roman,serif" font-size="10.00">price = &quot;$63&quot;</text>
<text text-anchor="start" x="157" y="-209.5" font-family="Times New Roman,serif" font-size="10.00">state = &quot;in stock&quot;</text>
</g>
<!-- carli_Customer -->
<g id="node4" class="node"><title>carli_Customer</title>
<polygon fill="none" stroke="black" points="11,-31.5 11,-48.5 120,-48.5 120,-31.5 11,-31.5"/>
<text text-anchor="start" x="14" y="-38.5" font-family="Times New Roman,serif" text-decoration="underline" font-size="10.00">carli_Customer :Customer</text>
<polygon fill="none" stroke="black" points="11,-3.5 11,-31.5 120,-31.5 120,-3.5 11,-3.5"/>
<text text-anchor="start" x="14.5" y="-20.5" font-family="Times New Roman,serif" font-size="10.00">id = &quot;Carli_Customer&quot;</text>
<text text-anchor="start" x="14.5" y="-9.5" font-family="Times New Roman,serif" font-size="10.00">name = &quot;Carli_Customer&quot;</text>
</g>
<!-- o0925_1&#45;&gt;carli_Customer -->
<g id="edge2" class="edge"><title>o0925_1&#45;&gt;carli_Customer</title>
<path fill="none" stroke="black" d="M65,-88.7296C65,-76.8895 65,-64.0317 65,-53.1693"/>
<text text-anchor="middle" x="46.5" y="-56.1693" font-family="Times New Roman,serif" font-size="10.00">customer</text>
<text text-anchor="middle" x="52" y="-80.7296" font-family="Times New Roman,serif" font-size="10.00">orders</text>
</g>
</g>
</svg>
