<?xml version="1.0" encoding="UTF-8" standalone="no"?>
<!DOCTYPE svg PUBLIC "-//W3C//DTD SVG 1.1//EN"
 "http://www.w3.org/Graphics/SVG/1.1/DTD/svg11.dtd">
<!-- Generated by graphviz version 2.38.0 (20140413.2041)
 -->
<!-- Title: uks.debuggen.microshop.MicroShop Pages: 1 -->
<svg width="258px" height="94px"
 viewBox="0.00 0.00 257.50 94.00" xmlns="http://www.w3.org/2000/svg" xmlns:xlink="http://www.w3.org/1999/xlink">
<g id="graph0" class="graph" transform="scale(1.0 1.0) rotate(0) translate(4 90)">
<title>uks.debuggen.microshop.MicroShop</title>
<polygon fill="white" stroke="none" points="-4,4 -4,-90 253.5,-90 253.5,4 -4,4"/>
<!-- red_shoes -->
<g id="node1" class="node"><title>red_shoes</title>
<polygon fill="none" stroke="black" points="8.5,-65 8.5,-82 107.5,-82 107.5,-65 8.5,-65"/>
<text text-anchor="start" x="11.5" y="-72" font-family="Times New Roman,serif" text-decoration="underline" font-size="10.00">red_shoes :MSProduct</text>
<polygon fill="none" stroke="black" points="8.5,-4 8.5,-65 107.5,-65 107.5,-4 8.5,-4"/>
<text text-anchor="start" x="17" y="-54" font-family="Times New Roman,serif" font-size="10.00">amount = 18</text>
<text text-anchor="start" x="17" y="-43" font-family="Times New Roman,serif" font-size="10.00">id = &quot;red_shoes&quot;</text>
<text text-anchor="start" x="17" y="-32" font-family="Times New Roman,serif" font-size="10.00">name = &quot;red_shoes&quot;</text>
<text text-anchor="start" x="17" y="-21" font-family="Times New Roman,serif" font-size="10.00">price = &quot;$42&quot;</text>
<text text-anchor="start" x="17" y="-10" font-family="Times New Roman,serif" font-size="10.00">state = &quot;in stock&quot;</text>
</g>
<!-- blue_jeans -->
<g id="node2" class="node"><title>blue_jeans</title>
<polygon fill="none" stroke="black" points="141.5,-65 141.5,-82 241.5,-82 241.5,-65 141.5,-65"/>
<text text-anchor="start" x="144.5" y="-72" font-family="Times New Roman,serif" text-decoration="underline" font-size="10.00">blue_jeans :MSProduct</text>
<polygon fill="none" stroke="black" points="141.5,-4 141.5,-65 241.5,-65 241.5,-4 141.5,-4"/>
<text text-anchor="start" x="149.5" y="-54" font-family="Times New Roman,serif" font-size="10.00">amount = 6</text>
<text text-anchor="start" x="149.5" y="-43" font-family="Times New Roman,serif" font-size="10.00">id = &quot;blue_jeans&quot;</text>
<text text-anchor="start" x="149.5" y="-32" font-family="Times New Roman,serif" font-size="10.00">name = &quot;blue_jeans&quot;</text>
<text text-anchor="start" x="149.5" y="-21" font-family="Times New Roman,serif" font-size="10.00">price = null</text>
<text text-anchor="start" x="149.5" y="-10" font-family="Times New Roman,serif" font-size="10.00">state = &quot;in stock&quot;</text>
</g>
</g>
</svg>
