<?xml version="1.0" encoding="UTF-8" standalone="no"?>
<!DOCTYPE svg PUBLIC "-//W3C//DTD SVG 1.1//EN"
 "http://www.w3.org/Graphics/SVG/1.1/DTD/svg11.dtd">
<!-- Generated by graphviz version 2.38.0 (20140413.2041)
 -->
<!-- Title: uks.debuggen.microshop.MicroShop Pages: 1 -->
<svg width="258px" height="83px"
 viewBox="0.00 0.00 257.50 83.00" xmlns="http://www.w3.org/2000/svg" xmlns:xlink="http://www.w3.org/1999/xlink">
<g id="graph0" class="graph" transform="scale(1.0 1.0) rotate(0) translate(4 79)">
<title>uks.debuggen.microshop.MicroShop</title>
<polygon fill="white" stroke="none" points="-4,4 -4,-79 253.5,-79 253.5,4 -4,4"/>
<!-- red_shoes -->
<g id="node1" class="node"><title>red_shoes</title>
<polygon fill="none" stroke="black" points="8.5,-53.5 8.5,-70.5 107.5,-70.5 107.5,-53.5 8.5,-53.5"/>
<text text-anchor="start" x="11.5" y="-60.5" font-family="Times New Roman,serif" text-decoration="underline" font-size="10.00">red_shoes :MSProduct</text>
<polygon fill="none" stroke="black" points="8.5,-3.5 8.5,-53.5 107.5,-53.5 107.5,-3.5 8.5,-3.5"/>
<text text-anchor="start" x="17" y="-42.5" font-family="Times New Roman,serif" font-size="10.00">id = &quot;red_shoes&quot;</text>
<text text-anchor="start" x="17" y="-31.5" font-family="Times New Roman,serif" font-size="10.00">name = &quot;red_shoes&quot;</text>
<text text-anchor="start" x="17" y="-20.5" font-family="Times New Roman,serif" font-size="10.00">price = &quot;$42&quot;</text>
<text text-anchor="start" x="17" y="-9.5" font-family="Times New Roman,serif" font-size="10.00">state = &quot;in stock&quot;</text>
</g>
<!-- blue_jeans -->
<g id="node2" class="node"><title>blue_jeans</title>
<polygon fill="none" stroke="black" points="141.5,-53.5 141.5,-70.5 241.5,-70.5 241.5,-53.5 141.5,-53.5"/>
<text text-anchor="start" x="144.5" y="-60.5" font-family="Times New Roman,serif" text-decoration="underline" font-size="10.00">blue_jeans :MSProduct</text>
<polygon fill="none" stroke="black" points="141.5,-3.5 141.5,-53.5 241.5,-53.5 241.5,-3.5 141.5,-3.5"/>
<text text-anchor="start" x="149.5" y="-42.5" font-family="Times New Roman,serif" font-size="10.00">id = &quot;blue_jeans&quot;</text>
<text text-anchor="start" x="149.5" y="-31.5" font-family="Times New Roman,serif" font-size="10.00">name = &quot;blue_jeans&quot;</text>
<text text-anchor="start" x="149.5" y="-20.5" font-family="Times New Roman,serif" font-size="10.00">price = &quot;$63&quot;</text>
<text text-anchor="start" x="149.5" y="-9.5" font-family="Times New Roman,serif" font-size="10.00">state = &quot;in stock&quot;</text>
</g>
</g>
</svg>
