<?xml version="1.0" encoding="UTF-8" standalone="no"?>
<!DOCTYPE svg PUBLIC "-//W3C//DTD SVG 1.1//EN"
 "http://www.w3.org/Graphics/SVG/1.1/DTD/svg11.dtd">
<!-- Generated by graphviz version 2.38.0 (20140413.2041)
 -->
<!-- Title: uks.debuggen.microshop.Warehouse Pages: 1 -->
<svg width="262px" height="294px"
 viewBox="0.00 0.00 262.00 294.00" xmlns="http://www.w3.org/2000/svg" xmlns:xlink="http://www.w3.org/1999/xlink">
<g id="graph0" class="graph" transform="scale(1.0 1.0) rotate(0) translate(4 290)">
<title>uks.debuggen.microshop.Warehouse</title>
<polygon fill="white" stroke="none" points="-4,4 -4,-290 258,-290 258,4 -4,4"/>
<!-- b001 -->
<g id="node1" class="node"><title>b001</title>
<polygon fill="none" stroke="black" points="13.5,-264.5 13.5,-281.5 104.5,-281.5 104.5,-264.5 13.5,-264.5"/>
<text text-anchor="start" x="33.5" y="-271.5" font-family="Times New Roman,serif" text-decoration="underline" font-size="10.00">b001 :Palette</text>
<polygon fill="none" stroke="black" points="13.5,-214.5 13.5,-264.5 104.5,-264.5 104.5,-214.5 13.5,-214.5"/>
<text text-anchor="start" x="16.5" y="-253.5" font-family="Times New Roman,serif" font-size="10.00">amount = 10</text>
<text text-anchor="start" x="16.5" y="-242.5" font-family="Times New Roman,serif" font-size="10.00">barcode = &quot;b001&quot;</text>
<text text-anchor="start" x="16.5" y="-231.5" font-family="Times New Roman,serif" font-size="10.00">id = &quot;b001&quot;</text>
<text text-anchor="start" x="16.5" y="-220.5" font-family="Times New Roman,serif" font-size="10.00">location = &quot;shelf_42&quot;</text>
</g>
<!-- red_shoes -->
<g id="node2" class="node"><title>red_shoes</title>
<polygon fill="none" stroke="black" points="8.5,-154 8.5,-171 109.5,-171 109.5,-154 8.5,-154"/>
<text text-anchor="start" x="11.5" y="-161" font-family="Times New Roman,serif" text-decoration="underline" font-size="10.00">red_shoes :WHProduct</text>
<polygon fill="none" stroke="black" points="8.5,-115 8.5,-154 109.5,-154 109.5,-115 8.5,-115"/>
<text text-anchor="start" x="18" y="-143" font-family="Times New Roman,serif" font-size="10.00">amount = 18</text>
<text text-anchor="start" x="18" y="-132" font-family="Times New Roman,serif" font-size="10.00">id = &quot;red_shoes&quot;</text>
<text text-anchor="start" x="18" y="-121" font-family="Times New Roman,serif" font-size="10.00">name = &quot;red_shoes&quot;</text>
</g>
<!-- b001&#45;&gt;red_shoes -->
<g id="edge1" class="edge"><title>b001&#45;&gt;red_shoes</title>
<path fill="none" stroke="black" d="M58.5,-210.718C58.5,-199.098 58.5,-186.375 58.5,-175.185"/>
<text text-anchor="middle" x="42.5" y="-178.185" font-family="Times New Roman,serif" font-size="10.00">product</text>
<text text-anchor="middle" x="42.5" y="-202.718" font-family="Times New Roman,serif" font-size="10.00">palettes</text>
</g>
<!-- b002 -->
<g id="node3" class="node"><title>b002</title>
<polygon fill="none" stroke="black" points="13.5,-53.5 13.5,-70.5 104.5,-70.5 104.5,-53.5 13.5,-53.5"/>
<text text-anchor="start" x="33.5" y="-60.5" font-family="Times New Roman,serif" text-decoration="underline" font-size="10.00">b002 :Palette</text>
<polygon fill="none" stroke="black" points="13.5,-3.5 13.5,-53.5 104.5,-53.5 104.5,-3.5 13.5,-3.5"/>
<text text-anchor="start" x="16.5" y="-42.5" font-family="Times New Roman,serif" font-size="10.00">amount = 8</text>
<text text-anchor="start" x="16.5" y="-31.5" font-family="Times New Roman,serif" font-size="10.00">barcode = &quot;b002&quot;</text>
<text text-anchor="start" x="16.5" y="-20.5" font-family="Times New Roman,serif" font-size="10.00">id = &quot;b002&quot;</text>
<text text-anchor="start" x="16.5" y="-9.5" font-family="Times New Roman,serif" font-size="10.00">location = &quot;shelf_23&quot;</text>
</g>
<!-- red_shoes&#45;&gt;b002 -->
<g id="edge2" class="edge"><title>red_shoes&#45;&gt;b002</title>
<path fill="none" stroke="black" d="M58.5,-110.947C58.5,-99.7523 58.5,-87.0111 58.5,-75.3683"/>
<text text-anchor="middle" x="42.5" y="-78.3683" font-family="Times New Roman,serif" font-size="10.00">palettes</text>
<text text-anchor="middle" x="42.5" y="-102.947" font-family="Times New Roman,serif" font-size="10.00">product</text>
</g>
<!-- b003 -->
<g id="node4" class="node"><title>b003</title>
<polygon fill="none" stroke="black" points="144.5,-264.5 144.5,-281.5 244.5,-281.5 244.5,-264.5 144.5,-264.5"/>
<text text-anchor="start" x="169" y="-271.5" font-family="Times New Roman,serif" text-decoration="underline" font-size="10.00">b003 :Palette</text>
<polygon fill="none" stroke="black" points="144.5,-214.5 144.5,-264.5 244.5,-264.5 244.5,-214.5 144.5,-214.5"/>
<text text-anchor="start" x="147.5" y="-253.5" font-family="Times New Roman,serif" font-size="10.00">amount = 6</text>
<text text-anchor="start" x="147.5" y="-242.5" font-family="Times New Roman,serif" font-size="10.00">barcode = &quot;b003&quot;</text>
<text text-anchor="start" x="147.5" y="-231.5" font-family="Times New Roman,serif" font-size="10.00">id = &quot;b003&quot;</text>
<text text-anchor="start" x="147.5" y="-220.5" font-family="Times New Roman,serif" font-size="10.00">location = &quot;shelf_1337&quot;</text>
</g>
<!-- blue_jeans -->
<g id="node5" class="node"><title>blue_jeans</title>
<polygon fill="none" stroke="black" points="143.5,-154 143.5,-171 246.5,-171 246.5,-154 143.5,-154"/>
<text text-anchor="start" x="146.5" y="-161" font-family="Times New Roman,serif" text-decoration="underline" font-size="10.00">blue_jeans :WHProduct</text>
<polygon fill="none" stroke="black" points="143.5,-115 143.5,-154 246.5,-154 246.5,-115 143.5,-115"/>
<text text-anchor="start" x="153" y="-143" font-family="Times New Roman,serif" font-size="10.00">amount = 6</text>
<text text-anchor="start" x="153" y="-132" font-family="Times New Roman,serif" font-size="10.00">id = &quot;blue_jeans&quot;</text>
<text text-anchor="start" x="153" y="-121" font-family="Times New Roman,serif" font-size="10.00">name = &quot;blue_jeans&quot;</text>
</g>
<!-- b003&#45;&gt;blue_jeans -->
<g id="edge3" class="edge"><title>b003&#45;&gt;blue_jeans</title>
<path fill="none" stroke="black" d="M194.5,-210.718C194.5,-199.098 194.5,-186.375 194.5,-175.185"/>
<text text-anchor="middle" x="178.5" y="-178.185" font-family="Times New Roman,serif" font-size="10.00">product</text>
<text text-anchor="middle" x="178.5" y="-202.718" font-family="Times New Roman,serif" font-size="10.00">palettes</text>
</g>
</g>
</svg>
