<?xml version="1.0" encoding="UTF-8" standalone="no"?>
<!DOCTYPE svg PUBLIC "-//W3C//DTD SVG 1.1//EN"
 "http://www.w3.org/Graphics/SVG/1.1/DTD/svg11.dtd">
<!-- Generated by graphviz version 2.38.0 (20140413.2041)
 -->
<!-- Title: uks.debuggen.microshop.Warehouse Pages: 1 -->
<svg width="351px" height="327px"
 viewBox="0.00 0.00 351.00 327.00" xmlns="http://www.w3.org/2000/svg" xmlns:xlink="http://www.w3.org/1999/xlink">
<g id="graph0" class="graph" transform="scale(1.0 1.0) rotate(0) translate(4 323)">
<title>uks.debuggen.microshop.Warehouse</title>
<polygon fill="white" stroke="none" points="-4,4 -4,-323 347,-323 347,4 -4,4"/>
<!-- b001 -->
<g id="node1" class="node"><title>b001</title>
<polygon fill="none" stroke="black" points="85.5,-297.5 85.5,-314.5 176.5,-314.5 176.5,-297.5 85.5,-297.5"/>
<text text-anchor="start" x="105.5" y="-304.5" font-family="Times New Roman,serif" text-decoration="underline" font-size="10.00">b001 :Palette</text>
<polygon fill="none" stroke="black" points="85.5,-247.5 85.5,-297.5 176.5,-297.5 176.5,-247.5 85.5,-247.5"/>
<text text-anchor="start" x="88.5" y="-286.5" font-family="Times New Roman,serif" font-size="10.00">amount = 9</text>
<text text-anchor="start" x="88.5" y="-275.5" font-family="Times New Roman,serif" font-size="10.00">barcode = &quot;b001&quot;</text>
<text text-anchor="start" x="88.5" y="-264.5" font-family="Times New Roman,serif" font-size="10.00">id = &quot;b001&quot;</text>
<text text-anchor="start" x="88.5" y="-253.5" font-family="Times New Roman,serif" font-size="10.00">location = &quot;shelf_42&quot;</text>
</g>
<!-- red_shoes -->
<g id="node2" class="node"><title>red_shoes</title>
<polygon fill="none" stroke="black" points="58.5,-187 58.5,-204 159.5,-204 159.5,-187 58.5,-187"/>
<text text-anchor="start" x="61.5" y="-194" font-family="Times New Roman,serif" text-decoration="underline" font-size="10.00">red_shoes :WHProduct</text>
<polygon fill="none" stroke="black" points="58.5,-148 58.5,-187 159.5,-187 159.5,-148 58.5,-148"/>
<text text-anchor="start" x="68" y="-176" font-family="Times New Roman,serif" font-size="10.00">amount = 17</text>
<text text-anchor="start" x="68" y="-165" font-family="Times New Roman,serif" font-size="10.00">id = &quot;red_shoes&quot;</text>
<text text-anchor="start" x="68" y="-154" font-family="Times New Roman,serif" font-size="10.00">name = &quot;red_shoes&quot;</text>
</g>
<!-- b001&#45;&gt;red_shoes -->
<g id="edge2" class="edge"><title>b001&#45;&gt;red_shoes</title>
<path fill="none" stroke="black" d="M122.682,-243.718C120.212,-232.098 117.507,-219.375 115.129,-208.185"/>
<text text-anchor="middle" x="99.1287" y="-211.185" font-family="Times New Roman,serif" font-size="10.00">product</text>
<text text-anchor="middle" x="106.682" y="-235.718" font-family="Times New Roman,serif" font-size="10.00">palettes</text>
</g>
<!-- pt_o0925_1 -->
<g id="node6" class="node"><title>pt_o0925_1</title>
<polygon fill="none" stroke="black" points="133.5,-87 133.5,-104 257.5,-104 257.5,-87 133.5,-87"/>
<text text-anchor="start" x="151.5" y="-94" font-family="Times New Roman,serif" text-decoration="underline" font-size="10.00">pt_o0925_1 :PickTask</text>
<polygon fill="none" stroke="black" points="133.5,-4 133.5,-87 257.5,-87 257.5,-4 133.5,-4"/>
<text text-anchor="start" x="136.5" y="-76" font-family="Times New Roman,serif" font-size="10.00">address = &quot;Wonderland 1&quot;</text>
<text text-anchor="start" x="136.5" y="-65" font-family="Times New Roman,serif" font-size="10.00">code = &quot;pt_o0925_1&quot;</text>
<text text-anchor="start" x="136.5" y="-54" font-family="Times New Roman,serif" font-size="10.00">customer = &quot;Carli_Customer&quot;</text>
<text text-anchor="start" x="136.5" y="-43" font-family="Times New Roman,serif" font-size="10.00">from = &quot;shelf_42&quot;</text>
<text text-anchor="start" x="136.5" y="-32" font-family="Times New Roman,serif" font-size="10.00">id = &quot;pt_o0925_1&quot;</text>
<text text-anchor="start" x="136.5" y="-21" font-family="Times New Roman,serif" font-size="10.00">shelf = &quot;[shelf_42, shelf_23]&quot;</text>
<text text-anchor="start" x="136.5" y="-10" font-family="Times New Roman,serif" font-size="10.00">state = &quot;shipping&quot;</text>
</g>
<!-- b001&#45;&gt;pt_o0925_1 -->
<g id="edge1" class="edge"><title>b001&#45;&gt;pt_o0925_1</title>
<path fill="none" stroke="black" d="M157.543,-243.674C164.432,-232.682 171.119,-220.278 175.5,-208 186.888,-176.084 191.905,-138.351 194.067,-108.343"/>
<text text-anchor="middle" x="214.567" y="-111.343" font-family="Times New Roman,serif" font-size="10.00">pickTasks</text>
<text text-anchor="middle" x="143.543" y="-235.674" font-family="Times New Roman,serif" font-size="10.00">palette</text>
</g>
<!-- b002 -->
<g id="node3" class="node"><title>b002</title>
<polygon fill="none" stroke="black" points="8.5,-70 8.5,-87 99.5,-87 99.5,-70 8.5,-70"/>
<text text-anchor="start" x="28.5" y="-77" font-family="Times New Roman,serif" text-decoration="underline" font-size="10.00">b002 :Palette</text>
<polygon fill="none" stroke="black" points="8.5,-20 8.5,-70 99.5,-70 99.5,-20 8.5,-20"/>
<text text-anchor="start" x="11.5" y="-59" font-family="Times New Roman,serif" font-size="10.00">amount = 8</text>
<text text-anchor="start" x="11.5" y="-48" font-family="Times New Roman,serif" font-size="10.00">barcode = &quot;b002&quot;</text>
<text text-anchor="start" x="11.5" y="-37" font-family="Times New Roman,serif" font-size="10.00">id = &quot;b002&quot;</text>
<text text-anchor="start" x="11.5" y="-26" font-family="Times New Roman,serif" font-size="10.00">location = &quot;shelf_23&quot;</text>
</g>
<!-- red_shoes&#45;&gt;b002 -->
<g id="edge3" class="edge"><title>red_shoes&#45;&gt;b002</title>
<path fill="none" stroke="black" d="M94.193,-143.785C86.8724,-127.812 77.9172,-108.274 70.2732,-91.596"/>
<text text-anchor="middle" x="54.2732" y="-94.596" font-family="Times New Roman,serif" font-size="10.00">palettes</text>
<text text-anchor="middle" x="78.193" y="-135.785" font-family="Times New Roman,serif" font-size="10.00">product</text>
</g>
<!-- red_shoes&#45;&gt;pt_o0925_1 -->
<g id="edge4" class="edge"><title>red_shoes&#45;&gt;pt_o0925_1</title>
<path fill="none" stroke="black" d="M131.131,-143.785C138.985,-132.951 148.029,-120.477 156.808,-108.368"/>
<text text-anchor="middle" x="136.308" y="-111.368" font-family="Times New Roman,serif" font-size="10.00">pickTasks</text>
<text text-anchor="middle" x="115.131" y="-135.785" font-family="Times New Roman,serif" font-size="10.00">product</text>
</g>
<!-- b003 -->
<g id="node4" class="node"><title>b003</title>
<polygon fill="none" stroke="black" points="233.5,-297.5 233.5,-314.5 333.5,-314.5 333.5,-297.5 233.5,-297.5"/>
<text text-anchor="start" x="258" y="-304.5" font-family="Times New Roman,serif" text-decoration="underline" font-size="10.00">b003 :Palette</text>
<polygon fill="none" stroke="black" points="233.5,-247.5 233.5,-297.5 333.5,-297.5 333.5,-247.5 233.5,-247.5"/>
<text text-anchor="start" x="236.5" y="-286.5" font-family="Times New Roman,serif" font-size="10.00">amount = 6</text>
<text text-anchor="start" x="236.5" y="-275.5" font-family="Times New Roman,serif" font-size="10.00">barcode = &quot;b003&quot;</text>
<text text-anchor="start" x="236.5" y="-264.5" font-family="Times New Roman,serif" font-size="10.00">id = &quot;b003&quot;</text>
<text text-anchor="start" x="236.5" y="-253.5" font-family="Times New Roman,serif" font-size="10.00">location = &quot;shelf_1337&quot;</text>
</g>
<!-- blue_jeans -->
<g id="node5" class="node"><title>blue_jeans</title>
<polygon fill="none" stroke="black" points="232.5,-187 232.5,-204 335.5,-204 335.5,-187 232.5,-187"/>
<text text-anchor="start" x="235.5" y="-194" font-family="Times New Roman,serif" text-decoration="underline" font-size="10.00">blue_jeans :WHProduct</text>
<polygon fill="none" stroke="black" points="232.5,-148 232.5,-187 335.5,-187 335.5,-148 232.5,-148"/>
<text text-anchor="start" x="242" y="-176" font-family="Times New Roman,serif" font-size="10.00">amount = 6</text>
<text text-anchor="start" x="242" y="-165" font-family="Times New Roman,serif" font-size="10.00">id = &quot;blue_jeans&quot;</text>
<text text-anchor="start" x="242" y="-154" font-family="Times New Roman,serif" font-size="10.00">name = &quot;blue_jeans&quot;</text>
</g>
<!-- b003&#45;&gt;blue_jeans -->
<g id="edge5" class="edge"><title>b003&#45;&gt;blue_jeans</title>
<path fill="none" stroke="black" d="M283.5,-243.718C283.5,-232.098 283.5,-219.375 283.5,-208.185"/>
<text text-anchor="middle" x="267.5" y="-211.185" font-family="Times New Roman,serif" font-size="10.00">product</text>
<text text-anchor="middle" x="267.5" y="-235.718" font-family="Times New Roman,serif" font-size="10.00">palettes</text>
</g>
</g>
</svg>
