<?xml version="1.0" encoding="UTF-8" standalone="no"?>
<!DOCTYPE svg PUBLIC "-//W3C//DTD SVG 1.1//EN"
 "http://www.w3.org/Graphics/SVG/1.1/DTD/svg11.dtd">
<!-- Generated by graphviz version 2.38.0 (20140413.2041)
 -->
<!-- Title: uks.debuggen.microshop.Warehouse Pages: 1 -->
<svg width="328px" height="327px"
 viewBox="0.00 0.00 328.00 327.00" xmlns="http://www.w3.org/2000/svg" xmlns:xlink="http://www.w3.org/1999/xlink">
<g id="graph0" class="graph" transform="scale(1.0 1.0) rotate(0) translate(4 323)">
<title>uks.debuggen.microshop.Warehouse</title>
<polygon fill="white" stroke="none" points="-4,4 -4,-323 324,-323 324,4 -4,4"/>
<!-- b001 -->
<g id="node1" class="node"><title>b001</title>
<polygon fill="none" stroke="black" points="79.5,-297.5 79.5,-314.5 170.5,-314.5 170.5,-297.5 79.5,-297.5"/>
<text text-anchor="start" x="99.5" y="-304.5" font-family="Times New Roman,serif" text-decoration="underline" font-size="10.00">b001 :Palette</text>
<polygon fill="none" stroke="black" points="79.5,-247.5 79.5,-297.5 170.5,-297.5 170.5,-247.5 79.5,-247.5"/>
<text text-anchor="start" x="82.5" y="-286.5" font-family="Times New Roman,serif" font-size="10.00">amount = 10</text>
<text text-anchor="start" x="82.5" y="-275.5" font-family="Times New Roman,serif" font-size="10.00">barcode = &quot;b001&quot;</text>
<text text-anchor="start" x="82.5" y="-264.5" font-family="Times New Roman,serif" font-size="10.00">id = &quot;b001&quot;</text>
<text text-anchor="start" x="82.5" y="-253.5" font-family="Times New Roman,serif" font-size="10.00">location = &quot;shelf_42&quot;</text>
</g>
<!-- red_shoes -->
<g id="node2" class="node"><title>red_shoes</title>
<polygon fill="none" stroke="black" points="74.5,-187 74.5,-204 175.5,-204 175.5,-187 74.5,-187"/>
<text text-anchor="start" x="77.5" y="-194" font-family="Times New Roman,serif" text-decoration="underline" font-size="10.00">red_shoes :WHProduct</text>
<polygon fill="none" stroke="black" points="74.5,-148 74.5,-187 175.5,-187 175.5,-148 74.5,-148"/>
<text text-anchor="start" x="84" y="-176" font-family="Times New Roman,serif" font-size="10.00">amount = 18</text>
<text text-anchor="start" x="84" y="-165" font-family="Times New Roman,serif" font-size="10.00">id = &quot;red_shoes&quot;</text>
<text text-anchor="start" x="84" y="-154" font-family="Times New Roman,serif" font-size="10.00">name = &quot;red_shoes&quot;</text>
</g>
<!-- b001&#45;&gt;red_shoes -->
<g id="edge1" class="edge"><title>b001&#45;&gt;red_shoes</title>
<path fill="none" stroke="black" d="M124.5,-243.718C124.5,-232.098 124.5,-219.375 124.5,-208.185"/>
<text text-anchor="middle" x="108.5" y="-211.185" font-family="Times New Roman,serif" font-size="10.00">product</text>
<text text-anchor="middle" x="108.5" y="-235.718" font-family="Times New Roman,serif" font-size="10.00">palettes</text>
</g>
<!-- b002 -->
<g id="node3" class="node"><title>b002</title>
<polygon fill="none" stroke="black" points="8.5,-70 8.5,-87 99.5,-87 99.5,-70 8.5,-70"/>
<text text-anchor="start" x="28.5" y="-77" font-family="Times New Roman,serif" text-decoration="underline" font-size="10.00">b002 :Palette</text>
<polygon fill="none" stroke="black" points="8.5,-20 8.5,-70 99.5,-70 99.5,-20 8.5,-20"/>
<text text-anchor="start" x="11.5" y="-59" font-family="Times New Roman,serif" font-size="10.00">amount = 8</text>
<text text-anchor="start" x="11.5" y="-48" font-family="Times New Roman,serif" font-size="10.00">barcode = &quot;b002&quot;</text>
<text text-anchor="start" x="11.5" y="-37" font-family="Times New Roman,serif" font-size="10.00">id = &quot;b002&quot;</text>
<text text-anchor="start" x="11.5" y="-26" font-family="Times New Roman,serif" font-size="10.00">location = &quot;shelf_23&quot;</text>
</g>
<!-- red_shoes&#45;&gt;b002 -->
<g id="edge2" class="edge"><title>red_shoes&#45;&gt;b002</title>
<path fill="none" stroke="black" d="M106.031,-143.785C96.5807,-127.812 85.0203,-108.274 75.1526,-91.596"/>
<text text-anchor="middle" x="59.1526" y="-94.596" font-family="Times New Roman,serif" font-size="10.00">palettes</text>
<text text-anchor="middle" x="90.0309" y="-135.785" font-family="Times New Roman,serif" font-size="10.00">product</text>
</g>
<!-- pt_o0925_1 -->
<g id="node6" class="node"><title>pt_o0925_1</title>
<polygon fill="none" stroke="black" points="133.5,-87 133.5,-104 257.5,-104 257.5,-87 133.5,-87"/>
<text text-anchor="start" x="151.5" y="-94" font-family="Times New Roman,serif" text-decoration="underline" font-size="10.00">pt_o0925_1 :PickTask</text>
<polygon fill="none" stroke="black" points="133.5,-4 133.5,-87 257.5,-87 257.5,-4 133.5,-4"/>
<text text-anchor="start" x="136.5" y="-76" font-family="Times New Roman,serif" font-size="10.00">address = &quot;Wonderland 1&quot;</text>
<text text-anchor="start" x="136.5" y="-65" font-family="Times New Roman,serif" font-size="10.00">code = &quot;pt_o0925_1&quot;</text>
<text text-anchor="start" x="136.5" y="-54" font-family="Times New Roman,serif" font-size="10.00">customer = &quot;Carli_Customer&quot;</text>
<text text-anchor="start" x="136.5" y="-43" font-family="Times New Roman,serif" font-size="10.00">from = null</text>
<text text-anchor="start" x="136.5" y="-32" font-family="Times New Roman,serif" font-size="10.00">id = &quot;pt_o0925_1&quot;</text>
<text text-anchor="start" x="136.5" y="-21" font-family="Times New Roman,serif" font-size="10.00">shelf = &quot;[shelf 42, shelf 23]&quot;</text>
<text text-anchor="start" x="136.5" y="-10" font-family="Times New Roman,serif" font-size="10.00">state = &quot;picking&quot;</text>
</g>
<!-- red_shoes&#45;&gt;pt_o0925_1 -->
<g id="edge3" class="edge"><title>red_shoes&#45;&gt;pt_o0925_1</title>
<path fill="none" stroke="black" d="M142.969,-143.785C149.379,-132.951 156.759,-120.477 163.924,-108.368"/>
<text text-anchor="middle" x="143.424" y="-111.368" font-family="Times New Roman,serif" font-size="10.00">pickTasks</text>
<text text-anchor="middle" x="126.969" y="-135.785" font-family="Times New Roman,serif" font-size="10.00">product</text>
</g>
<!-- b003 -->
<g id="node4" class="node"><title>b003</title>
<polygon fill="none" stroke="black" points="210.5,-297.5 210.5,-314.5 310.5,-314.5 310.5,-297.5 210.5,-297.5"/>
<text text-anchor="start" x="235" y="-304.5" font-family="Times New Roman,serif" text-decoration="underline" font-size="10.00">b003 :Palette</text>
<polygon fill="none" stroke="black" points="210.5,-247.5 210.5,-297.5 310.5,-297.5 310.5,-247.5 210.5,-247.5"/>
<text text-anchor="start" x="213.5" y="-286.5" font-family="Times New Roman,serif" font-size="10.00">amount = 6</text>
<text text-anchor="start" x="213.5" y="-275.5" font-family="Times New Roman,serif" font-size="10.00">barcode = &quot;b003&quot;</text>
<text text-anchor="start" x="213.5" y="-264.5" font-family="Times New Roman,serif" font-size="10.00">id = &quot;b003&quot;</text>
<text text-anchor="start" x="213.5" y="-253.5" font-family="Times New Roman,serif" font-size="10.00">location = &quot;shelf_1337&quot;</text>
</g>
<!-- blue_jeans -->
<g id="node5" class="node"><title>blue_jeans</title>
<polygon fill="none" stroke="black" points="209.5,-187 209.5,-204 312.5,-204 312.5,-187 209.5,-187"/>
<text text-anchor="start" x="212.5" y="-194" font-family="Times New Roman,serif" text-decoration="underline" font-size="10.00">blue_jeans :WHProduct</text>
<polygon fill="none" stroke="black" points="209.5,-148 209.5,-187 312.5,-187 312.5,-148 209.5,-148"/>
<text text-anchor="start" x="219" y="-176" font-family="Times New Roman,serif" font-size="10.00">amount = 6</text>
<text text-anchor="start" x="219" y="-165" font-family="Times New Roman,serif" font-size="10.00">id = &quot;blue_jeans&quot;</text>
<text text-anchor="start" x="219" y="-154" font-family="Times New Roman,serif" font-size="10.00">name = &quot;blue_jeans&quot;</text>
</g>
<!-- b003&#45;&gt;blue_jeans -->
<g id="edge4" class="edge"><title>b003&#45;&gt;blue_jeans</title>
<path fill="none" stroke="black" d="M260.5,-243.718C260.5,-232.098 260.5,-219.375 260.5,-208.185"/>
<text text-anchor="middle" x="244.5" y="-211.185" font-family="Times New Roman,serif" font-size="10.00">product</text>
<text text-anchor="middle" x="244.5" y="-235.718" font-family="Times New Roman,serif" font-size="10.00">palettes</text>
</g>
</g>
</svg>
