<?xml version="1.0" encoding="UTF-8" standalone="no"?>
<!DOCTYPE svg PUBLIC "-//W3C//DTD SVG 1.1//EN"
 "http://www.w3.org/Graphics/SVG/1.1/DTD/svg11.dtd">
<!-- Generated by graphviz version 2.38.0 (20140413.2041)
 -->
<!-- Title: uks.debuggen.microshop.Warehouse Pages: 1 -->
<svg width="125px" height="183px"
 viewBox="0.00 0.00 125.00 183.00" xmlns="http://www.w3.org/2000/svg" xmlns:xlink="http://www.w3.org/1999/xlink">
<g id="graph0" class="graph" transform="scale(1.0 1.0) rotate(0) translate(4 179)">
<title>uks.debuggen.microshop.Warehouse</title>
<polygon fill="white" stroke="none" points="-4,4 -4,-179 121,-179 121,4 -4,4"/>
<!-- b001 -->
<g id="node1" class="node"><title>b001</title>
<polygon fill="none" stroke="black" points="13.5,-153.5 13.5,-170.5 104.5,-170.5 104.5,-153.5 13.5,-153.5"/>
<text text-anchor="start" x="33.5" y="-160.5" font-family="Times New Roman,serif" text-decoration="underline" font-size="10.00">b001 :Palette</text>
<polygon fill="none" stroke="black" points="13.5,-103.5 13.5,-153.5 104.5,-153.5 104.5,-103.5 13.5,-103.5"/>
<text text-anchor="start" x="16.5" y="-142.5" font-family="Times New Roman,serif" font-size="10.00">amount = 10</text>
<text text-anchor="start" x="16.5" y="-131.5" font-family="Times New Roman,serif" font-size="10.00">barcode = &quot;b001&quot;</text>
<text text-anchor="start" x="16.5" y="-120.5" font-family="Times New Roman,serif" font-size="10.00">id = &quot;b001&quot;</text>
<text text-anchor="start" x="16.5" y="-109.5" font-family="Times New Roman,serif" font-size="10.00">location = &quot;shelf_42&quot;</text>
</g>
<!-- red_shoes -->
<g id="node2" class="node"><title>red_shoes</title>
<polygon fill="none" stroke="black" points="8.5,-43 8.5,-60 109.5,-60 109.5,-43 8.5,-43"/>
<text text-anchor="start" x="11.5" y="-50" font-family="Times New Roman,serif" text-decoration="underline" font-size="10.00">red_shoes :WHProduct</text>
<polygon fill="none" stroke="black" points="8.5,-4 8.5,-43 109.5,-43 109.5,-4 8.5,-4"/>
<text text-anchor="start" x="18" y="-32" font-family="Times New Roman,serif" font-size="10.00">amount = 10</text>
<text text-anchor="start" x="18" y="-21" font-family="Times New Roman,serif" font-size="10.00">id = &quot;red_shoes&quot;</text>
<text text-anchor="start" x="18" y="-10" font-family="Times New Roman,serif" font-size="10.00">name = &quot;red_shoes&quot;</text>
</g>
<!-- b001&#45;&gt;red_shoes -->
<g id="edge1" class="edge"><title>b001&#45;&gt;red_shoes</title>
<path fill="none" stroke="black" d="M58.5,-99.7183C58.5,-88.0977 58.5,-75.3753 58.5,-64.185"/>
<text text-anchor="middle" x="42.5" y="-67.185" font-family="Times New Roman,serif" font-size="10.00">product</text>
<text text-anchor="middle" x="42.5" y="-91.7183" font-family="Times New Roman,serif" font-size="10.00">palettes</text>
</g>
</g>
</svg>
