<?xml version="1.0" encoding="UTF-8" standalone="no"?>
<!DOCTYPE svg PUBLIC "-//W3C//DTD SVG 1.1//EN"
 "http://www.w3.org/Graphics/SVG/1.1/DTD/svg11.dtd">
<!-- Generated by graphviz version 2.38.0 (20140413.2041)
 -->
<!-- Title: uks.debuggen.pm.party Pages: 1 -->
<svg width="105px" height="139px"
 viewBox="0.00 0.00 105.00 139.00" xmlns="http://www.w3.org/2000/svg" xmlns:xlink="http://www.w3.org/1999/xlink">
<g id="graph0" class="graph" transform="scale(1.0 1.0) rotate(0) translate(4 135)">
<title>uks.debuggen.pm.party</title>
<polygon fill="white" stroke="none" points="-4,4 -4,-135 101,-135 101,4 -4,4"/>
<!-- theApp -->
<g id="node1" class="node"><title>theApp</title>
<polygon fill="none" stroke="black" points="8.5,-110 8.5,-127 89.5,-127 89.5,-110 8.5,-110"/>
<text text-anchor="start" x="11.5" y="-117" font-family="Times New Roman,serif" text-decoration="underline" font-size="10.00">theApp :PartyApp</text>
<polygon fill="none" stroke="black" points="8.5,-93 8.5,-110 89.5,-110 89.5,-93 8.5,-93"/>
<text text-anchor="start" x="20" y="-99" font-family="Times New Roman,serif" font-size="10.00">id = &quot;theApp&quot;</text>
</g>
<!-- alice -->
<g id="node2" class="node"><title>alice</title>
<polygon fill="none" stroke="black" points="15.5,-31.5 15.5,-48.5 82.5,-48.5 82.5,-31.5 15.5,-31.5"/>
<text text-anchor="start" x="26" y="-38.5" font-family="Times New Roman,serif" text-decoration="underline" font-size="10.00">alice :Guest</text>
<polygon fill="none" stroke="black" points="15.5,-3.5 15.5,-31.5 82.5,-31.5 82.5,-3.5 15.5,-3.5"/>
<text text-anchor="start" x="18.5" y="-20.5" font-family="Times New Roman,serif" font-size="10.00">id = &quot;Alice&quot;</text>
<text text-anchor="start" x="18.5" y="-9.5" font-family="Times New Roman,serif" font-size="10.00">name = &quot;Alice&quot;</text>
</g>
<!-- theApp&#45;&gt;alice -->
<g id="edge1" class="edge"><title>theApp&#45;&gt;alice</title>
<path fill="none" stroke="black" d="M48.5,-88.8539C48.5,-78.1065 48.5,-64.7644 48.5,-53.2696"/>
<text text-anchor="middle" x="34.5" y="-56.2696" font-family="Times New Roman,serif" font-size="10.00">guests</text>
<text text-anchor="middle" x="40.5" y="-80.8539" font-family="Times New Roman,serif" font-size="10.00">app</text>
</g>
</g>
</svg>
