<?xml version="1.0" encoding="UTF-8" standalone="no"?>
<!DOCTYPE svg PUBLIC "-//W3C//DTD SVG 1.1//EN"
 "http://www.w3.org/Graphics/SVG/1.1/DTD/svg11.dtd">
<!-- Generated by graphviz version 2.38.0 (20140413.2041)
 -->
<!-- Title: uks.debuggen.pm.studyright Pages: 1 -->
<svg width="241px" height="461px"
 viewBox="0.00 0.00 241.00 461.00" xmlns="http://www.w3.org/2000/svg" xmlns:xlink="http://www.w3.org/1999/xlink">
<g id="graph0" class="graph" transform="scale(1.0 1.0) rotate(0) translate(4 457)">
<title>uks.debuggen.pm.studyright</title>
<polygon fill="white" stroke="none" points="-4,4 -4,-457 237,-457 237,4 -4,4"/>
<!-- carli -->
<g id="node1" class="node"><title>carli</title>
<polygon fill="none" stroke="black" points="51.5,-432 51.5,-449 119.5,-449 119.5,-432 51.5,-432"/>
<text text-anchor="start" x="59" y="-439" font-family="Times New Roman,serif" text-decoration="underline" font-size="10.00">carli :Student</text>
<polygon fill="none" stroke="black" points="51.5,-393 51.5,-432 119.5,-432 119.5,-393 51.5,-393"/>
<text text-anchor="start" x="54.5" y="-421" font-family="Times New Roman,serif" font-size="10.00">id = &quot;carli&quot;</text>
<text text-anchor="start" x="54.5" y="-410" font-family="Times New Roman,serif" font-size="10.00">motivation = 83</text>
<text text-anchor="start" x="54.5" y="-399" font-family="Times New Roman,serif" font-size="10.00">route = null</text>
</g>
<!-- stop1 -->
<g id="node2" class="node"><title>stop1</title>
<polygon fill="none" stroke="black" points="51.5,-331.5 51.5,-348.5 119.5,-348.5 119.5,-331.5 51.5,-331.5"/>
<text text-anchor="start" x="62.5" y="-338.5" font-family="Times New Roman,serif" text-decoration="underline" font-size="10.00">stop1 :Stop</text>
<polygon fill="none" stroke="black" points="51.5,-303.5 51.5,-331.5 119.5,-331.5 119.5,-303.5 51.5,-303.5"/>
<text text-anchor="start" x="54.5" y="-320.5" font-family="Times New Roman,serif" font-size="10.00">id = &quot;stop1&quot;</text>
<text text-anchor="start" x="54.5" y="-309.5" font-family="Times New Roman,serif" font-size="10.00">motivation = 66</text>
</g>
<!-- carli&#45;&gt;stop1 -->
<g id="edge1" class="edge"><title>carli&#45;&gt;stop1</title>
<path fill="none" stroke="black" d="M85.5,-388.942C85.5,-377.29 85.5,-364.191 85.5,-353.091"/>
<text text-anchor="middle" x="74" y="-356.091" font-family="Times New Roman,serif" font-size="10.00">stops</text>
<text text-anchor="middle" x="70" y="-380.942" font-family="Times New Roman,serif" font-size="10.00">student</text>
</g>
<!-- r1 -->
<g id="node3" class="node"><title>r1</title>
<polygon fill="none" stroke="black" points="53.5,-243 53.5,-260 118.5,-260 118.5,-243 53.5,-243"/>
<text text-anchor="start" x="68" y="-250" font-family="Times New Roman,serif" text-decoration="underline" font-size="10.00">r1 :Room</text>
<polygon fill="none" stroke="black" points="53.5,-204 53.5,-243 118.5,-243 118.5,-204 53.5,-204"/>
<text text-anchor="start" x="56.5" y="-232" font-family="Times New Roman,serif" font-size="10.00">credits = 17</text>
<text text-anchor="start" x="56.5" y="-221" font-family="Times New Roman,serif" font-size="10.00">id = &quot;r1&quot;</text>
<text text-anchor="start" x="56.5" y="-210" font-family="Times New Roman,serif" font-size="10.00">topic = &quot;math&quot;</text>
</g>
<!-- stop1&#45;&gt;r1 -->
<g id="edge2" class="edge"><title>stop1&#45;&gt;r1</title>
<path fill="none" stroke="black" d="M85.5,-299.734C85.5,-288.721 85.5,-275.768 85.5,-264.218"/>
<text text-anchor="middle" x="75" y="-267.218" font-family="Times New Roman,serif" font-size="10.00">room</text>
<text text-anchor="middle" x="74" y="-291.734" font-family="Times New Roman,serif" font-size="10.00">stops</text>
</g>
<!-- r2 -->
<g id="node4" class="node"><title>r2</title>
<polygon fill="none" stroke="black" points="8.5,-143 8.5,-160 87.5,-160 87.5,-143 8.5,-143"/>
<text text-anchor="start" x="30" y="-150" font-family="Times New Roman,serif" text-decoration="underline" font-size="10.00">r2 :Room</text>
<polygon fill="none" stroke="black" points="8.5,-104 8.5,-143 87.5,-143 87.5,-104 8.5,-104"/>
<text text-anchor="start" x="11.5" y="-132" font-family="Times New Roman,serif" font-size="10.00">credits = 20</text>
<text text-anchor="start" x="11.5" y="-121" font-family="Times New Roman,serif" font-size="10.00">id = &quot;r2&quot;</text>
<text text-anchor="start" x="11.5" y="-110" font-family="Times New Roman,serif" font-size="10.00">topic = &quot;calculus&quot;</text>
</g>
<!-- r1&#45;&gt;r2 -->
<g id="edge3" class="edge"><title>r1&#45;&gt;r2</title>
<path fill="none" stroke="black" d="M73.4766,-199.992C69.0408,-188.553 64.016,-175.594 59.5756,-164.142"/>
<text text-anchor="middle" x="39.0756" y="-167.142" font-family="Times New Roman,serif" font-size="10.00">neighbors</text>
<text text-anchor="middle" x="52.9766" y="-191.992" font-family="Times New Roman,serif" font-size="10.00">neighbors</text>
</g>
<!-- r5 -->
<g id="node6" class="node"><title>r5</title>
<polygon fill="none" stroke="black" points="82.5,-43 82.5,-60 164.5,-60 164.5,-43 82.5,-43"/>
<text text-anchor="start" x="105.5" y="-50" font-family="Times New Roman,serif" text-decoration="underline" font-size="10.00">r5 :Room</text>
<polygon fill="none" stroke="black" points="82.5,-4 82.5,-43 164.5,-43 164.5,-4 82.5,-4"/>
<text text-anchor="start" x="85.5" y="-32" font-family="Times New Roman,serif" font-size="10.00">credits = 29</text>
<text text-anchor="start" x="85.5" y="-21" font-family="Times New Roman,serif" font-size="10.00">id = &quot;r5&quot;</text>
<text text-anchor="start" x="85.5" y="-10" font-family="Times New Roman,serif" font-size="10.00">topic = &quot;modeling&quot;</text>
</g>
<!-- r1&#45;&gt;r5 -->
<g id="edge4" class="edge"><title>r1&#45;&gt;r5</title>
<path fill="none" stroke="black" d="M94.6486,-199.814C97.7368,-188.589 101.025,-175.787 103.5,-164 110.616,-130.114 116.277,-90.795 119.735,-64.1424"/>
<text text-anchor="middle" x="99.235" y="-67.1424" font-family="Times New Roman,serif" font-size="10.00">neighbors</text>
<text text-anchor="middle" x="115.149" y="-191.814" font-family="Times New Roman,serif" font-size="10.00">neighbors</text>
</g>
<!-- r2&#45;&gt;r5 -->
<g id="edge5" class="edge"><title>r2&#45;&gt;r5</title>
<path fill="none" stroke="black" d="M71.5469,-99.9922C80.4183,-88.5527 90.468,-75.5938 99.3487,-64.1425"/>
<text text-anchor="middle" x="78.8487" y="-67.1425" font-family="Times New Roman,serif" font-size="10.00">neighbors</text>
<text text-anchor="middle" x="51.0469" y="-91.9922" font-family="Times New Roman,serif" font-size="10.00">neighbors</text>
</g>
<!-- r4 -->
<g id="node5" class="node"><title>r4</title>
<polygon fill="none" stroke="black" points="160.5,-143 160.5,-160 225.5,-160 225.5,-143 160.5,-143"/>
<text text-anchor="start" x="175" y="-150" font-family="Times New Roman,serif" text-decoration="underline" font-size="10.00">r4 :Room</text>
<polygon fill="none" stroke="black" points="160.5,-104 160.5,-143 225.5,-143 225.5,-104 160.5,-104"/>
<text text-anchor="start" x="163.5" y="-132" font-family="Times New Roman,serif" font-size="10.00">credits = 0</text>
<text text-anchor="start" x="163.5" y="-121" font-family="Times New Roman,serif" font-size="10.00">id = &quot;r4&quot;</text>
<text text-anchor="start" x="163.5" y="-110" font-family="Times New Roman,serif" font-size="10.00">topic = &quot;exam&quot;</text>
</g>
<!-- r4&#45;&gt;r5 -->
<g id="edge6" class="edge"><title>r4&#45;&gt;r5</title>
<path fill="none" stroke="black" d="M170.668,-99.9922C162.614,-88.5527 153.49,-75.5938 145.427,-64.1425"/>
<text text-anchor="middle" x="165.927" y="-67.1425" font-family="Times New Roman,serif" font-size="10.00">neighbors</text>
<text text-anchor="middle" x="150.168" y="-91.9922" font-family="Times New Roman,serif" font-size="10.00">neighbors</text>
</g>
</g>
</svg>
