<?xml version="1.0" encoding="UTF-8" standalone="no"?>
<!DOCTYPE svg PUBLIC "-//W3C//DTD SVG 1.1//EN"
 "http://www.w3.org/Graphics/SVG/1.1/DTD/svg11.dtd">
<!-- Generated by graphviz version 2.38.0 (20140413.2041)
 -->
<!-- Title: uks.debuggen.studyright.StudyRight Pages: 1 -->
<svg width="660px" height="483px"
 viewBox="0.00 0.00 659.50 483.00" xmlns="http://www.w3.org/2000/svg" xmlns:xlink="http://www.w3.org/1999/xlink">
<g id="graph0" class="graph" transform="scale(1.0 1.0) rotate(0) translate(4 479)">
<title>uks.debuggen.studyright.StudyRight</title>
<polygon fill="white" stroke="none" points="-4,4 -4,-479 655.5,-479 655.5,4 -4,4"/>
<!-- studyRight -->
<g id="node1" class="node"><title>studyRight</title>
<polygon fill="none" stroke="black" points="112,-443 112,-460 210,-460 210,-443 112,-443"/>
<text text-anchor="start" x="115" y="-450" font-family="Times New Roman,serif" text-decoration="underline" font-size="10.00">studyRight :University</text>
<polygon fill="none" stroke="black" points="112,-426 112,-443 210,-443 210,-426 112,-426"/>
<text text-anchor="start" x="124.5" y="-432" font-family="Times New Roman,serif" font-size="10.00">id = &quot;StudyRight&quot;</text>
</g>
<!-- math -->
<g id="node2" class="node"><title>math</title>
<polygon fill="none" stroke="black" points="134,-342.5 134,-359.5 188,-359.5 188,-342.5 134,-342.5"/>
<text text-anchor="start" x="137" y="-349.5" font-family="Times New Roman,serif" text-decoration="underline" font-size="10.00">math :Room</text>
<polygon fill="none" stroke="black" points="134,-314.5 134,-342.5 188,-342.5 188,-314.5 134,-314.5"/>
<text text-anchor="start" x="138" y="-331.5" font-family="Times New Roman,serif" font-size="10.00">credits = 23</text>
<text text-anchor="start" x="138" y="-320.5" font-family="Times New Roman,serif" font-size="10.00">id = &quot;math&quot;</text>
</g>
<!-- studyRight&#45;&gt;math -->
<g id="edge2" class="edge"><title>studyRight&#45;&gt;math</title>
<path fill="none" stroke="black" d="M161,-421.552C161,-405.056 161,-381.764 161,-364.043"/>
<text text-anchor="middle" x="148.5" y="-367.043" font-family="Times New Roman,serif" font-size="10.00">rooms</text>
<text text-anchor="middle" x="154.5" y="-413.552" font-family="Times New Roman,serif" font-size="10.00">uni</text>
</g>
<!-- exam -->
<g id="node3" class="node"><title>exam</title>
<polygon fill="none" stroke="black" points="8,-342.5 8,-359.5 62,-359.5 62,-342.5 8,-342.5"/>
<text text-anchor="start" x="11" y="-349.5" font-family="Times New Roman,serif" text-decoration="underline" font-size="10.00">exam :Room</text>
<polygon fill="none" stroke="black" points="8,-314.5 8,-342.5 62,-342.5 62,-314.5 8,-314.5"/>
<text text-anchor="start" x="12" y="-331.5" font-family="Times New Roman,serif" font-size="10.00">credits = 0</text>
<text text-anchor="start" x="12" y="-320.5" font-family="Times New Roman,serif" font-size="10.00">id = &quot;exam&quot;</text>
</g>
<!-- studyRight&#45;&gt;exam -->
<g id="edge3" class="edge"><title>studyRight&#45;&gt;exam</title>
<path fill="none" stroke="black" d="M136.407,-421.798C116.354,-405.326 87.9058,-381.958 66.2422,-364.163"/>
<text text-anchor="middle" x="53.7422" y="-367.163" font-family="Times New Roman,serif" font-size="10.00">rooms</text>
<text text-anchor="middle" x="129.907" y="-413.798" font-family="Times New Roman,serif" font-size="10.00">uni</text>
</g>
<!-- modeling -->
<g id="node4" class="node"><title>modeling</title>
<polygon fill="none" stroke="black" points="63,-237 63,-254 134,-254 134,-237 63,-237"/>
<text text-anchor="start" x="66" y="-244" font-family="Times New Roman,serif" text-decoration="underline" font-size="10.00">modeling :Room</text>
<polygon fill="none" stroke="black" points="63,-209 63,-237 134,-237 134,-209 63,-209"/>
<text text-anchor="start" x="66.5" y="-226" font-family="Times New Roman,serif" font-size="10.00">credits = 42</text>
<text text-anchor="start" x="66.5" y="-215" font-family="Times New Roman,serif" font-size="10.00">id = &quot;modeling&quot;</text>
</g>
<!-- studyRight&#45;&gt;modeling -->
<g id="edge4" class="edge"><title>studyRight&#45;&gt;modeling</title>
<path fill="none" stroke="black" d="M144.331,-421.894C134.744,-409.224 123.372,-392.08 117,-375 102.526,-336.199 98.8423,-287.803 98.0357,-258.705"/>
<text text-anchor="middle" x="85.5357" y="-261.705" font-family="Times New Roman,serif" font-size="10.00">rooms</text>
<text text-anchor="middle" x="141.081" y="-413.894" font-family="Times New Roman,serif" font-size="10.00">uni</text>
</g>
<!-- algebra -->
<g id="node5" class="node"><title>algebra</title>
<polygon fill="none" stroke="black" points="138,-137 138,-154 202,-154 202,-137 138,-137"/>
<text text-anchor="start" x="141" y="-144" font-family="Times New Roman,serif" text-decoration="underline" font-size="10.00">algebra :Room</text>
<polygon fill="none" stroke="black" points="138,-109 138,-137 202,-137 202,-109 138,-109"/>
<text text-anchor="start" x="142" y="-126" font-family="Times New Roman,serif" font-size="10.00">credits = 12</text>
<text text-anchor="start" x="142" y="-115" font-family="Times New Roman,serif" font-size="10.00">id = &quot;algebra&quot;</text>
</g>
<!-- studyRight&#45;&gt;algebra -->
<g id="edge5" class="edge"><title>studyRight&#45;&gt;algebra</title>
<path fill="none" stroke="black" d="M178.718,-421.881C188.552,-409.339 199.818,-392.333 205,-375 227.923,-298.334 198.112,-203.363 180.798,-158.611"/>
<text text-anchor="middle" x="168.298" y="-161.611" font-family="Times New Roman,serif" font-size="10.00">rooms</text>
<text text-anchor="middle" x="172.218" y="-413.881" font-family="Times New Roman,serif" font-size="10.00">uni</text>
</g>
<!-- carli -->
<g id="node6" class="node"><title>carli</title>
<polygon fill="none" stroke="black" points="261,-353.5 261,-370.5 352,-370.5 352,-353.5 261,-353.5"/>
<text text-anchor="start" x="280" y="-360.5" font-family="Times New Roman,serif" text-decoration="underline" font-size="10.00">carli :Student</text>
<polygon fill="none" stroke="black" points="261,-303.5 261,-353.5 352,-353.5 352,-303.5 261,-303.5"/>
<text text-anchor="start" x="264" y="-342.5" font-family="Times New Roman,serif" font-size="10.00">birthYear = 1970</text>
<text text-anchor="start" x="264" y="-331.5" font-family="Times New Roman,serif" font-size="10.00">id = &quot;carli&quot;</text>
<text text-anchor="start" x="264" y="-320.5" font-family="Times New Roman,serif" font-size="10.00">name = &quot;Carli&quot;</text>
<text text-anchor="start" x="264" y="-309.5" font-family="Times New Roman,serif" font-size="10.00">studentId = &quot;stud42&quot;</text>
</g>
<!-- studyRight&#45;&gt;carli -->
<g id="edge1" class="edge"><title>studyRight&#45;&gt;carli</title>
<path fill="none" stroke="black" d="M189.302,-421.798C207.846,-408.562 232.628,-390.873 254.584,-375.2"/>
<text text-anchor="middle" x="238.084" y="-378.2" font-family="Times New Roman,serif" font-size="10.00">persons</text>
<text text-anchor="middle" x="195.802" y="-413.798" font-family="Times New Roman,serif" font-size="10.00">uni</text>
</g>
<!-- math&#45;&gt;modeling -->
<g id="edge6" class="edge"><title>math&#45;&gt;modeling</title>
<path fill="none" stroke="black" d="M145.427,-310.916C135.735,-294.992 123.312,-274.584 113.612,-258.649"/>
<text text-anchor="middle" x="125.612" y="-261.649" font-family="Times New Roman,serif" font-size="10.00">doors</text>
<text text-anchor="middle" x="133.427" y="-302.916" font-family="Times New Roman,serif" font-size="10.00">doors</text>
</g>
<!-- math&#45;&gt;algebra -->
<g id="edge7" class="edge"><title>math&#45;&gt;algebra</title>
<path fill="none" stroke="black" d="M162.14,-310.727C163.871,-271.582 167.144,-197.584 168.869,-158.564"/>
<text text-anchor="middle" x="180.869" y="-161.564" font-family="Times New Roman,serif" font-size="10.00">doors</text>
<text text-anchor="middle" x="174.14" y="-302.727" font-family="Times New Roman,serif" font-size="10.00">doors</text>
</g>
<!-- exam&#45;&gt;modeling -->
<g id="edge8" class="edge"><title>exam&#45;&gt;modeling</title>
<path fill="none" stroke="black" d="M50.573,-310.916C60.2655,-294.992 72.688,-274.584 82.3878,-258.649"/>
<text text-anchor="middle" x="70.3878" y="-261.649" font-family="Times New Roman,serif" font-size="10.00">doors</text>
<text text-anchor="middle" x="38.573" y="-302.916" font-family="Times New Roman,serif" font-size="10.00">doors</text>
</g>
<!-- modeling&#45;&gt;algebra -->
<g id="edge9" class="edge"><title>modeling&#45;&gt;algebra</title>
<path fill="none" stroke="black" d="M116.917,-205.252C127.5,-190.847 140.647,-172.953 151.209,-158.576"/>
<text text-anchor="middle" x="139.209" y="-161.576" font-family="Times New Roman,serif" font-size="10.00">doors</text>
<text text-anchor="middle" x="104.917" y="-197.252" font-family="Times New Roman,serif" font-size="10.00">doors</text>
</g>
<!-- allTours -->
<g id="node7" class="node"><title>allTours</title>
<polygon fill="none" stroke="black" points="400,-443 400,-460 479,-460 479,-443 400,-443"/>
<text text-anchor="start" x="403" y="-450" font-family="Times New Roman,serif" text-decoration="underline" font-size="10.00">allTours :TourList</text>
<polygon fill="none" stroke="black" points="400,-426 400,-443 479,-443 479,-426 400,-426"/>
<text text-anchor="start" x="409.5" y="-432" font-family="Times New Roman,serif" font-size="10.00">id = &quot;allTours&quot;</text>
</g>
<!-- tour1 -->
<g id="node14" class="node"><title>tour1</title>
<polygon fill="none" stroke="black" points="386,-342.5 386,-359.5 492,-359.5 492,-342.5 386,-342.5"/>
<text text-anchor="start" x="416" y="-349.5" font-family="Times New Roman,serif" text-decoration="underline" font-size="10.00">tour1 :Tour</text>
<polygon fill="none" stroke="black" points="386,-314.5 386,-342.5 492,-342.5 492,-314.5 386,-314.5"/>
<text text-anchor="start" x="389" y="-331.5" font-family="Times New Roman,serif" font-size="10.00">id = &quot;tour1&quot;</text>
<text text-anchor="start" x="389" y="-320.5" font-family="Times New Roman,serif" font-size="10.00">stops = &quot;modeling exam&quot;</text>
</g>
<!-- allTours&#45;&gt;tour1 -->
<g id="edge10" class="edge"><title>allTours&#45;&gt;tour1</title>
<path fill="none" stroke="black" d="M439,-421.552C439,-405.056 439,-381.764 439,-364.043"/>
<text text-anchor="middle" x="415.5" y="-367.043" font-family="Times New Roman,serif" font-size="10.00">alternatives</text>
<text text-anchor="middle" x="423" y="-413.552" font-family="Times New Roman,serif" font-size="10.00">tourList</text>
</g>
<!-- s01 -->
<g id="node8" class="node"><title>s01</title>
<polygon fill="none" stroke="black" points="526,-454 526,-471 594,-471 594,-454 526,-454"/>
<text text-anchor="start" x="541.5" y="-461" font-family="Times New Roman,serif" text-decoration="underline" font-size="10.00">s01 :Stop</text>
<polygon fill="none" stroke="black" points="526,-415 526,-454 594,-454 594,-415 526,-415"/>
<text text-anchor="start" x="529" y="-443" font-family="Times New Roman,serif" font-size="10.00">id = &quot;s01&quot;</text>
<text text-anchor="start" x="529" y="-432" font-family="Times New Roman,serif" font-size="10.00">motivation = 77</text>
<text text-anchor="start" x="529" y="-421" font-family="Times New Roman,serif" font-size="10.00">room = null</text>
</g>
<!-- s02 -->
<g id="node9" class="node"><title>s02</title>
<polygon fill="none" stroke="black" points="526,-348.5 526,-365.5 594,-365.5 594,-348.5 526,-348.5"/>
<text text-anchor="start" x="541.5" y="-355.5" font-family="Times New Roman,serif" text-decoration="underline" font-size="10.00">s02 :Stop</text>
<polygon fill="none" stroke="black" points="526,-309.5 526,-348.5 594,-348.5 594,-309.5 526,-309.5"/>
<text text-anchor="start" x="529" y="-337.5" font-family="Times New Roman,serif" font-size="10.00">id = &quot;s02&quot;</text>
<text text-anchor="start" x="529" y="-326.5" font-family="Times New Roman,serif" font-size="10.00">motivation = 54</text>
<text text-anchor="start" x="529" y="-315.5" font-family="Times New Roman,serif" font-size="10.00">room = &quot;math&quot;</text>
</g>
<!-- s01&#45;&gt;s02 -->
<g id="edge11" class="edge"><title>s01&#45;&gt;s02</title>
<path fill="none" stroke="black" d="M560,-410.947C560,-397.847 560,-382.629 560,-369.531"/>
<text text-anchor="middle" x="540" y="-372.531" font-family="Times New Roman,serif" font-size="10.00">nextStops</text>
<text text-anchor="middle" x="532.5" y="-402.947" font-family="Times New Roman,serif" font-size="10.00">previousStop</text>
</g>
<!-- s03 -->
<g id="node10" class="node"><title>s03</title>
<polygon fill="none" stroke="black" points="523,-243 523,-260 598,-260 598,-243 523,-243"/>
<text text-anchor="start" x="542" y="-250" font-family="Times New Roman,serif" text-decoration="underline" font-size="10.00">s03 :Stop</text>
<polygon fill="none" stroke="black" points="523,-204 523,-243 598,-243 598,-204 523,-204"/>
<text text-anchor="start" x="526" y="-232" font-family="Times New Roman,serif" font-size="10.00">id = &quot;s03&quot;</text>
<text text-anchor="start" x="526" y="-221" font-family="Times New Roman,serif" font-size="10.00">motivation = 42</text>
<text text-anchor="start" x="526" y="-210" font-family="Times New Roman,serif" font-size="10.00">room = &quot;algebra&quot;</text>
</g>
<!-- s02&#45;&gt;s03 -->
<g id="edge12" class="edge"><title>s02&#45;&gt;s03</title>
<path fill="none" stroke="black" d="M560,-305.447C560,-292.347 560,-277.129 560,-264.031"/>
<text text-anchor="middle" x="540" y="-267.031" font-family="Times New Roman,serif" font-size="10.00">nextStops</text>
<text text-anchor="middle" x="532.5" y="-297.447" font-family="Times New Roman,serif" font-size="10.00">previousStop</text>
</g>
<!-- s05 -->
<g id="node11" class="node"><title>s05</title>
<polygon fill="none" stroke="black" points="519,-143 519,-160 601,-160 601,-143 519,-143"/>
<text text-anchor="start" x="541.5" y="-150" font-family="Times New Roman,serif" text-decoration="underline" font-size="10.00">s05 :Stop</text>
<polygon fill="none" stroke="black" points="519,-104 519,-143 601,-143 601,-104 519,-104"/>
<text text-anchor="start" x="522" y="-132" font-family="Times New Roman,serif" font-size="10.00">id = &quot;s05&quot;</text>
<text text-anchor="start" x="522" y="-121" font-family="Times New Roman,serif" font-size="10.00">motivation = 0</text>
<text text-anchor="start" x="522" y="-110" font-family="Times New Roman,serif" font-size="10.00">room = &quot;modeling&quot;</text>
</g>
<!-- s03&#45;&gt;s05 -->
<g id="edge13" class="edge"><title>s03&#45;&gt;s05</title>
<path fill="none" stroke="black" d="M560,-199.992C560,-188.553 560,-175.594 560,-164.142"/>
<text text-anchor="middle" x="540" y="-167.142" font-family="Times New Roman,serif" font-size="10.00">nextStops</text>
<text text-anchor="middle" x="532.5" y="-191.992" font-family="Times New Roman,serif" font-size="10.00">previousStop</text>
</g>
<!-- s07 -->
<g id="node12" class="node"><title>s07</title>
<polygon fill="none" stroke="black" points="474,-43 474,-60 545,-60 545,-43 474,-43"/>
<text text-anchor="start" x="491" y="-50" font-family="Times New Roman,serif" text-decoration="underline" font-size="10.00">s07 :Stop</text>
<polygon fill="none" stroke="black" points="474,-4 474,-43 545,-43 545,-4 474,-4"/>
<text text-anchor="start" x="477" y="-32" font-family="Times New Roman,serif" font-size="10.00">id = &quot;s07&quot;</text>
<text text-anchor="start" x="477" y="-21" font-family="Times New Roman,serif" font-size="10.00">motivation = &#45;23</text>
<text text-anchor="start" x="477" y="-10" font-family="Times New Roman,serif" font-size="10.00">room = &quot;math&quot;</text>
</g>
<!-- s05&#45;&gt;s07 -->
<g id="edge14" class="edge"><title>s05&#45;&gt;s07</title>
<path fill="none" stroke="black" d="M543.863,-99.9922C537.91,-88.5527 531.166,-75.5938 525.207,-64.1425"/>
<text text-anchor="middle" x="505.207" y="-67.1425" font-family="Times New Roman,serif" font-size="10.00">nextStops</text>
<text text-anchor="middle" x="516.363" y="-91.9922" font-family="Times New Roman,serif" font-size="10.00">previousStop</text>
</g>
<!-- s08 -->
<g id="node13" class="node"><title>s08</title>
<polygon fill="none" stroke="black" points="579,-43 579,-60 644,-60 644,-43 579,-43"/>
<text text-anchor="start" x="593" y="-50" font-family="Times New Roman,serif" text-decoration="underline" font-size="10.00">s08 :Stop</text>
<polygon fill="none" stroke="black" points="579,-4 579,-43 644,-43 644,-4 579,-4"/>
<text text-anchor="start" x="582" y="-32" font-family="Times New Roman,serif" font-size="10.00">id = &quot;s08&quot;</text>
<text text-anchor="start" x="582" y="-21" font-family="Times New Roman,serif" font-size="10.00">motivation = 0</text>
<text text-anchor="start" x="582" y="-10" font-family="Times New Roman,serif" font-size="10.00">room = &quot;exam&quot;</text>
</g>
<!-- s05&#45;&gt;s08 -->
<g id="edge15" class="edge"><title>s05&#45;&gt;s08</title>
<path fill="none" stroke="black" d="M576.137,-99.9922C582.09,-88.5527 588.834,-75.5938 594.793,-64.1425"/>
<text text-anchor="middle" x="574.793" y="-67.1425" font-family="Times New Roman,serif" font-size="10.00">nextStops</text>
<text text-anchor="middle" x="603.637" y="-91.9922" font-family="Times New Roman,serif" font-size="10.00">previousStop</text>
</g>
</g>
</svg>
