<?xml version="1.0" encoding="UTF-8" standalone="no"?>
<!DOCTYPE svg PUBLIC "-//W3C//DTD SVG 1.1//EN"
 "http://www.w3.org/Graphics/SVG/1.1/DTD/svg11.dtd">
<!-- Generated by graphviz version 2.38.0 (20140413.2041)
 -->
<!-- Title: uks.debuggen.studyright.StudyRight Pages: 1 -->
<svg width="442px" height="361px"
 viewBox="0.00 0.00 442.00 361.00" xmlns="http://www.w3.org/2000/svg" xmlns:xlink="http://www.w3.org/1999/xlink">
<g id="graph0" class="graph" transform="scale(1.0 1.0) rotate(0) translate(4 357)">
<title>uks.debuggen.studyright.StudyRight</title>
<polygon fill="white" stroke="none" points="-4,4 -4,-357 438,-357 438,4 -4,4"/>
<!-- studyRight -->
<g id="node1" class="node"><title>studyRight</title>
<polygon fill="none" stroke="black" points="112,-321 112,-338 210,-338 210,-321 112,-321"/>
<text text-anchor="start" x="115" y="-328" font-family="Times New Roman,serif" text-decoration="underline" font-size="10.00">studyRight :University</text>
<polygon fill="none" stroke="black" points="112,-304 112,-321 210,-321 210,-304 112,-304"/>
<text text-anchor="start" x="124.5" y="-310" font-family="Times New Roman,serif" font-size="10.00">id = &quot;StudyRight&quot;</text>
</g>
<!-- math -->
<g id="node2" class="node"><title>math</title>
<polygon fill="none" stroke="black" points="134,-220.5 134,-237.5 188,-237.5 188,-220.5 134,-220.5"/>
<text text-anchor="start" x="137" y="-227.5" font-family="Times New Roman,serif" text-decoration="underline" font-size="10.00">math :Room</text>
<polygon fill="none" stroke="black" points="134,-192.5 134,-220.5 188,-220.5 188,-192.5 134,-192.5"/>
<text text-anchor="start" x="138" y="-209.5" font-family="Times New Roman,serif" font-size="10.00">credits = 23</text>
<text text-anchor="start" x="138" y="-198.5" font-family="Times New Roman,serif" font-size="10.00">id = &quot;math&quot;</text>
</g>
<!-- studyRight&#45;&gt;math -->
<g id="edge2" class="edge"><title>studyRight&#45;&gt;math</title>
<path fill="none" stroke="black" d="M161,-299.552C161,-283.056 161,-259.764 161,-242.043"/>
<text text-anchor="middle" x="148.5" y="-245.043" font-family="Times New Roman,serif" font-size="10.00">rooms</text>
<text text-anchor="middle" x="154.5" y="-291.552" font-family="Times New Roman,serif" font-size="10.00">uni</text>
</g>
<!-- exam -->
<g id="node3" class="node"><title>exam</title>
<polygon fill="none" stroke="black" points="8,-220.5 8,-237.5 62,-237.5 62,-220.5 8,-220.5"/>
<text text-anchor="start" x="11" y="-227.5" font-family="Times New Roman,serif" text-decoration="underline" font-size="10.00">exam :Room</text>
<polygon fill="none" stroke="black" points="8,-192.5 8,-220.5 62,-220.5 62,-192.5 8,-192.5"/>
<text text-anchor="start" x="12" y="-209.5" font-family="Times New Roman,serif" font-size="10.00">credits = 0</text>
<text text-anchor="start" x="12" y="-198.5" font-family="Times New Roman,serif" font-size="10.00">id = &quot;exam&quot;</text>
</g>
<!-- studyRight&#45;&gt;exam -->
<g id="edge3" class="edge"><title>studyRight&#45;&gt;exam</title>
<path fill="none" stroke="black" d="M136.407,-299.798C116.354,-283.326 87.9058,-259.958 66.2422,-242.163"/>
<text text-anchor="middle" x="53.7422" y="-245.163" font-family="Times New Roman,serif" font-size="10.00">rooms</text>
<text text-anchor="middle" x="129.907" y="-291.798" font-family="Times New Roman,serif" font-size="10.00">uni</text>
</g>
<!-- modeling -->
<g id="node4" class="node"><title>modeling</title>
<polygon fill="none" stroke="black" points="63,-120.5 63,-137.5 134,-137.5 134,-120.5 63,-120.5"/>
<text text-anchor="start" x="66" y="-127.5" font-family="Times New Roman,serif" text-decoration="underline" font-size="10.00">modeling :Room</text>
<polygon fill="none" stroke="black" points="63,-92.5 63,-120.5 134,-120.5 134,-92.5 63,-92.5"/>
<text text-anchor="start" x="66.5" y="-109.5" font-family="Times New Roman,serif" font-size="10.00">credits = 42</text>
<text text-anchor="start" x="66.5" y="-98.5" font-family="Times New Roman,serif" font-size="10.00">id = &quot;modeling&quot;</text>
</g>
<!-- studyRight&#45;&gt;modeling -->
<g id="edge4" class="edge"><title>studyRight&#45;&gt;modeling</title>
<path fill="none" stroke="black" d="M144.363,-299.882C134.788,-287.208 123.417,-270.063 117,-253 103.146,-216.16 99.2514,-170.303 98.2372,-142.229"/>
<text text-anchor="middle" x="85.7372" y="-145.229" font-family="Times New Roman,serif" font-size="10.00">rooms</text>
<text text-anchor="middle" x="144.363" y="-291.882" font-family="Times New Roman,serif" font-size="10.00">uni</text>
</g>
<!-- algebra -->
<g id="node5" class="node"><title>algebra</title>
<polygon fill="none" stroke="black" points="138,-31.5 138,-48.5 202,-48.5 202,-31.5 138,-31.5"/>
<text text-anchor="start" x="141" y="-38.5" font-family="Times New Roman,serif" text-decoration="underline" font-size="10.00">algebra :Room</text>
<polygon fill="none" stroke="black" points="138,-3.5 138,-31.5 202,-31.5 202,-3.5 138,-3.5"/>
<text text-anchor="start" x="142" y="-20.5" font-family="Times New Roman,serif" font-size="10.00">credits = 12</text>
<text text-anchor="start" x="142" y="-9.5" font-family="Times New Roman,serif" font-size="10.00">id = &quot;algebra&quot;</text>
</g>
<!-- studyRight&#45;&gt;algebra -->
<g id="edge5" class="edge"><title>studyRight&#45;&gt;algebra</title>
<path fill="none" stroke="black" d="M178.718,-299.881C188.552,-287.339 199.818,-270.333 205,-253 226.11,-182.399 198.068,-95.3501 181.155,-53.024"/>
<text text-anchor="middle" x="193.655" y="-56.024" font-family="Times New Roman,serif" font-size="10.00">rooms</text>
<text text-anchor="middle" x="172.218" y="-291.881" font-family="Times New Roman,serif" font-size="10.00">uni</text>
</g>
<!-- carli -->
<g id="node6" class="node"><title>carli</title>
<polygon fill="none" stroke="black" points="261,-231.5 261,-248.5 352,-248.5 352,-231.5 261,-231.5"/>
<text text-anchor="start" x="280" y="-238.5" font-family="Times New Roman,serif" text-decoration="underline" font-size="10.00">carli :Student</text>
<polygon fill="none" stroke="black" points="261,-181.5 261,-231.5 352,-231.5 352,-181.5 261,-181.5"/>
<text text-anchor="start" x="264" y="-220.5" font-family="Times New Roman,serif" font-size="10.00">birthYear = 1970</text>
<text text-anchor="start" x="264" y="-209.5" font-family="Times New Roman,serif" font-size="10.00">id = &quot;carli&quot;</text>
<text text-anchor="start" x="264" y="-198.5" font-family="Times New Roman,serif" font-size="10.00">name = &quot;Carli&quot;</text>
<text text-anchor="start" x="264" y="-187.5" font-family="Times New Roman,serif" font-size="10.00">studentId = &quot;stud42&quot;</text>
</g>
<!-- studyRight&#45;&gt;carli -->
<g id="edge1" class="edge"><title>studyRight&#45;&gt;carli</title>
<path fill="none" stroke="black" d="M189.302,-299.798C207.846,-286.562 232.628,-268.873 254.584,-253.2"/>
<text text-anchor="middle" x="238.084" y="-256.2" font-family="Times New Roman,serif" font-size="10.00">persons</text>
<text text-anchor="middle" x="195.802" y="-291.798" font-family="Times New Roman,serif" font-size="10.00">uni</text>
</g>
<!-- math&#45;&gt;modeling -->
<g id="edge6" class="edge"><title>math&#45;&gt;modeling</title>
<path fill="none" stroke="black" d="M144.447,-188.752C135.187,-174.347 123.684,-156.453 114.442,-142.076"/>
<text text-anchor="middle" x="126.442" y="-145.076" font-family="Times New Roman,serif" font-size="10.00">doors</text>
<text text-anchor="middle" x="132.447" y="-180.752" font-family="Times New Roman,serif" font-size="10.00">doors</text>
</g>
<!-- math&#45;&gt;algebra -->
<g id="edge7" class="edge"><title>math&#45;&gt;algebra</title>
<path fill="none" stroke="black" d="M162.233,-188.891C163.951,-153.18 167.05,-88.8044 168.768,-53.0995"/>
<text text-anchor="middle" x="156.768" y="-56.0995" font-family="Times New Roman,serif" font-size="10.00">doors</text>
<text text-anchor="middle" x="174.233" y="-180.891" font-family="Times New Roman,serif" font-size="10.00">doors</text>
</g>
<!-- exam&#45;&gt;modeling -->
<g id="edge8" class="edge"><title>exam&#45;&gt;modeling</title>
<path fill="none" stroke="black" d="M51.5525,-188.752C60.8125,-174.347 72.316,-156.453 81.558,-142.076"/>
<text text-anchor="middle" x="69.558" y="-145.076" font-family="Times New Roman,serif" font-size="10.00">doors</text>
<text text-anchor="middle" x="39.5525" y="-180.752" font-family="Times New Roman,serif" font-size="10.00">doors</text>
</g>
<!-- modeling&#45;&gt;algebra -->
<g id="edge9" class="edge"><title>modeling&#45;&gt;algebra</title>
<path fill="none" stroke="black" d="M119.213,-88.8677C128.505,-77.6402 139.387,-64.4906 148.69,-53.2497"/>
<text text-anchor="middle" x="136.69" y="-56.2497" font-family="Times New Roman,serif" font-size="10.00">doors</text>
<text text-anchor="middle" x="107.213" y="-80.8677" font-family="Times New Roman,serif" font-size="10.00">doors</text>
</g>
<!-- allTours -->
<g id="node7" class="node"><title>allTours</title>
<polygon fill="none" stroke="black" points="245,-321 245,-338 324,-338 324,-321 245,-321"/>
<text text-anchor="start" x="248" y="-328" font-family="Times New Roman,serif" text-decoration="underline" font-size="10.00">allTours :TourList</text>
<polygon fill="none" stroke="black" points="245,-304 245,-321 324,-321 324,-304 245,-304"/>
<text text-anchor="start" x="254.5" y="-310" font-family="Times New Roman,serif" font-size="10.00">id = &quot;allTours&quot;</text>
</g>
<!-- s01 -->
<g id="node8" class="node"><title>s01</title>
<polygon fill="none" stroke="black" points="358,-332 358,-349 426,-349 426,-332 358,-332"/>
<text text-anchor="start" x="373.5" y="-339" font-family="Times New Roman,serif" text-decoration="underline" font-size="10.00">s01 :Stop</text>
<polygon fill="none" stroke="black" points="358,-293 358,-332 426,-332 426,-293 358,-293"/>
<text text-anchor="start" x="361" y="-321" font-family="Times New Roman,serif" font-size="10.00">id = &quot;s01&quot;</text>
<text text-anchor="start" x="361" y="-310" font-family="Times New Roman,serif" font-size="10.00">motivation = 77</text>
<text text-anchor="start" x="361" y="-299" font-family="Times New Roman,serif" font-size="10.00">room = null</text>
</g>
</g>
</svg>
