<?xml version="1.0" encoding="UTF-8" standalone="no"?>
<!DOCTYPE svg PUBLIC "-//W3C//DTD SVG 1.1//EN"
 "http://www.w3.org/Graphics/SVG/1.1/DTD/svg11.dtd">
<!-- Generated by graphviz version 2.38.0 (20140413.2041)
 -->
<!-- Title: uks.debuggen.pm.studyright Pages: 1 -->
<svg width="911px" height="728px"
 viewBox="0.00 0.00 911.00 728.00" xmlns="http://www.w3.org/2000/svg" xmlns:xlink="http://www.w3.org/1999/xlink">
<g id="graph0" class="graph" transform="scale(1.0 1.0) rotate(0) translate(4 724)">
<title>uks.debuggen.pm.studyright</title>
<polygon fill="white" stroke="none" points="-4,4 -4,-724 907.002,-724 907.002,4 -4,4"/>
<!-- carli -->
<g id="node1" class="node"><title>carli</title>
<polygon fill="none" stroke="black" points="188.002,-699 188.002,-716 414.002,-716 414.002,-699 188.002,-699"/>
<text text-anchor="start" x="274.502" y="-706" font-family="Times New Roman,serif" text-decoration="underline" font-size="10.00">carli :Student</text>
<polygon fill="none" stroke="black" points="188.002,-660 188.002,-699 414.002,-699 414.002,-660 188.002,-660"/>
<text text-anchor="start" x="191.002" y="-688" font-family="Times New Roman,serif" font-size="10.00">id = &quot;carli&quot;</text>
<text text-anchor="start" x="191.002" y="-677" font-family="Times New Roman,serif" font-size="10.00">motivation = 83</text>
<text text-anchor="start" x="191.002" y="-666" font-family="Times New Roman,serif" font-size="10.00">route = &quot;math &#45;&gt; calculus &#45;&gt; math &#45;&gt; modeling &#45;&gt; exam&quot;</text>
</g>
<!-- stop1 -->
<g id="node2" class="node"><title>stop1</title>
<polygon fill="none" stroke="black" points="267.002,-598.5 267.002,-615.5 335.002,-615.5 335.002,-598.5 267.002,-598.5"/>
<text text-anchor="start" x="278.002" y="-605.5" font-family="Times New Roman,serif" text-decoration="underline" font-size="10.00">stop1 :Stop</text>
<polygon fill="none" stroke="black" points="267.002,-570.5 267.002,-598.5 335.002,-598.5 335.002,-570.5 267.002,-570.5"/>
<text text-anchor="start" x="270.002" y="-587.5" font-family="Times New Roman,serif" font-size="10.00">id = &quot;stop1&quot;</text>
<text text-anchor="start" x="270.002" y="-576.5" font-family="Times New Roman,serif" font-size="10.00">motivation = 66</text>
</g>
<!-- carli&#45;&gt;stop1 -->
<g id="edge1" class="edge"><title>carli&#45;&gt;stop1</title>
<path fill="none" stroke="black" d="M301.002,-655.942C301.002,-644.29 301.002,-631.191 301.002,-620.091"/>
<text text-anchor="middle" x="289.502" y="-623.091" font-family="Times New Roman,serif" font-size="10.00">stops</text>
<text text-anchor="middle" x="285.502" y="-647.942" font-family="Times New Roman,serif" font-size="10.00">student</text>
</g>
<!-- r1 -->
<g id="node3" class="node"><title>r1</title>
<polygon fill="none" stroke="black" points="269.002,-510 269.002,-527 334.002,-527 334.002,-510 269.002,-510"/>
<text text-anchor="start" x="283.502" y="-517" font-family="Times New Roman,serif" text-decoration="underline" font-size="10.00">r1 :Room</text>
<polygon fill="none" stroke="black" points="269.002,-471 269.002,-510 334.002,-510 334.002,-471 269.002,-471"/>
<text text-anchor="start" x="272.002" y="-499" font-family="Times New Roman,serif" font-size="10.00">credits = 17</text>
<text text-anchor="start" x="272.002" y="-488" font-family="Times New Roman,serif" font-size="10.00">id = &quot;r1&quot;</text>
<text text-anchor="start" x="272.002" y="-477" font-family="Times New Roman,serif" font-size="10.00">topic = &quot;math&quot;</text>
</g>
<!-- stop1&#45;&gt;r1 -->
<g id="edge4" class="edge"><title>stop1&#45;&gt;r1</title>
<path fill="none" stroke="black" d="M301.002,-566.734C301.002,-555.721 301.002,-542.768 301.002,-531.218"/>
<text text-anchor="middle" x="290.502" y="-534.218" font-family="Times New Roman,serif" font-size="10.00">room</text>
<text text-anchor="middle" x="289.502" y="-558.734" font-family="Times New Roman,serif" font-size="10.00">stops</text>
</g>
<!-- stop2 -->
<g id="node7" class="node"><title>stop2</title>
<polygon fill="none" stroke="black" points="491.002,-304 491.002,-321 559.002,-321 559.002,-304 491.002,-304"/>
<text text-anchor="start" x="502.002" y="-311" font-family="Times New Roman,serif" text-decoration="underline" font-size="10.00">stop2 :Stop</text>
<polygon fill="none" stroke="black" points="491.002,-276 491.002,-304 559.002,-304 559.002,-276 491.002,-276"/>
<text text-anchor="start" x="494.002" y="-293" font-family="Times New Roman,serif" font-size="10.00">id = &quot;stop2&quot;</text>
<text text-anchor="start" x="494.002" y="-282" font-family="Times New Roman,serif" font-size="10.00">motivation = 46</text>
</g>
<!-- stop1&#45;&gt;stop2 -->
<g id="edge2" class="edge"><title>stop1&#45;&gt;stop2</title>
<path fill="none" stroke="black" d="M343.322,-570.505C389.85,-543.977 463.031,-494.874 501.002,-431 520.438,-398.306 524.806,-353.538 525.445,-325.713"/>
<text text-anchor="middle" x="516.945" y="-328.713" font-family="Times New Roman,serif" font-size="10.00">next</text>
<text text-anchor="middle" x="352.822" y="-573.505" font-family="Times New Roman,serif" font-size="10.00">prev</text>
</g>
<!-- stop3 -->
<g id="node8" class="node"><title>stop3</title>
<polygon fill="none" stroke="black" points="23.0023,-209.5 23.0023,-226.5 91.0023,-226.5 91.0023,-209.5 23.0023,-209.5"/>
<text text-anchor="start" x="34.0023" y="-216.5" font-family="Times New Roman,serif" text-decoration="underline" font-size="10.00">stop3 :Stop</text>
<polygon fill="none" stroke="black" points="23.0023,-181.5 23.0023,-209.5 91.0023,-209.5 91.0023,-181.5 23.0023,-181.5"/>
<text text-anchor="start" x="26.0023" y="-198.5" font-family="Times New Roman,serif" font-size="10.00">id = &quot;stop3&quot;</text>
<text text-anchor="start" x="26.0023" y="-187.5" font-family="Times New Roman,serif" font-size="10.00">motivation = 37</text>
</g>
<!-- stop1&#45;&gt;stop3 -->
<g id="edge3" class="edge"><title>stop1&#45;&gt;stop3</title>
<path fill="none" stroke="black" d="M279.929,-566.889C270.947,-555.894 260.395,-542.87 251.002,-531 216.195,-487.012 204.149,-478.304 174.002,-431 129.913,-361.819 88.1277,-274.127 68.5726,-231.343"/>
<text text-anchor="middle" x="60.0726" y="-234.343" font-family="Times New Roman,serif" font-size="10.00">next</text>
<text text-anchor="middle" x="270.429" y="-558.889" font-family="Times New Roman,serif" font-size="10.00">prev</text>
</g>
<!-- r2 -->
<g id="node4" class="node"><title>r2</title>
<polygon fill="none" stroke="black" points="224.002,-410 224.002,-427 303.002,-427 303.002,-410 224.002,-410"/>
<text text-anchor="start" x="245.502" y="-417" font-family="Times New Roman,serif" text-decoration="underline" font-size="10.00">r2 :Room</text>
<polygon fill="none" stroke="black" points="224.002,-371 224.002,-410 303.002,-410 303.002,-371 224.002,-371"/>
<text text-anchor="start" x="227.002" y="-399" font-family="Times New Roman,serif" font-size="10.00">credits = 20</text>
<text text-anchor="start" x="227.002" y="-388" font-family="Times New Roman,serif" font-size="10.00">id = &quot;r2&quot;</text>
<text text-anchor="start" x="227.002" y="-377" font-family="Times New Roman,serif" font-size="10.00">topic = &quot;calculus&quot;</text>
</g>
<!-- r1&#45;&gt;r2 -->
<g id="edge5" class="edge"><title>r1&#45;&gt;r2</title>
<path fill="none" stroke="black" d="M288.979,-466.992C284.543,-455.553 279.518,-442.594 275.078,-431.142"/>
<text text-anchor="middle" x="254.578" y="-434.142" font-family="Times New Roman,serif" font-size="10.00">neighbors</text>
<text text-anchor="middle" x="268.479" y="-458.992" font-family="Times New Roman,serif" font-size="10.00">neighbors</text>
</g>
<!-- r5 -->
<g id="node6" class="node"><title>r5</title>
<polygon fill="none" stroke="black" points="375.002,-310 375.002,-327 457.002,-327 457.002,-310 375.002,-310"/>
<text text-anchor="start" x="398.002" y="-317" font-family="Times New Roman,serif" text-decoration="underline" font-size="10.00">r5 :Room</text>
<polygon fill="none" stroke="black" points="375.002,-271 375.002,-310 457.002,-310 457.002,-271 375.002,-271"/>
<text text-anchor="start" x="378.002" y="-299" font-family="Times New Roman,serif" font-size="10.00">credits = 29</text>
<text text-anchor="start" x="378.002" y="-288" font-family="Times New Roman,serif" font-size="10.00">id = &quot;r5&quot;</text>
<text text-anchor="start" x="378.002" y="-277" font-family="Times New Roman,serif" font-size="10.00">topic = &quot;modeling&quot;</text>
</g>
<!-- r1&#45;&gt;r5 -->
<g id="edge6" class="edge"><title>r1&#45;&gt;r5</title>
<path fill="none" stroke="black" d="M327.299,-466.96C336.009,-455.965 345.409,-443.27 353.002,-431 373.187,-398.381 391.613,-358.314 403.252,-331.144"/>
<text text-anchor="middle" x="382.752" y="-334.144" font-family="Times New Roman,serif" font-size="10.00">neighbors</text>
<text text-anchor="middle" x="347.799" y="-458.96" font-family="Times New Roman,serif" font-size="10.00">neighbors</text>
</g>
<!-- stop4 -->
<g id="node9" class="node"><title>stop4</title>
<polygon fill="none" stroke="black" points="22.0023,-120.5 22.0023,-137.5 90.0023,-137.5 90.0023,-120.5 22.0023,-120.5"/>
<text text-anchor="start" x="33.0023" y="-127.5" font-family="Times New Roman,serif" text-decoration="underline" font-size="10.00">stop4 :Stop</text>
<polygon fill="none" stroke="black" points="22.0023,-92.5 22.0023,-120.5 90.0023,-120.5 90.0023,-92.5 22.0023,-92.5"/>
<text text-anchor="start" x="25.0023" y="-109.5" font-family="Times New Roman,serif" font-size="10.00">id = &quot;stop4&quot;</text>
<text text-anchor="start" x="25.0023" y="-98.5" font-family="Times New Roman,serif" font-size="10.00">motivation = 20</text>
</g>
<!-- r1&#45;&gt;stop4 -->
<g id="edge7" class="edge"><title>r1&#45;&gt;stop4</title>
<path fill="none" stroke="black" d="M260.261,-481.407C234.081,-469.606 200.196,-452.13 174.002,-431 83.6477,-358.114 45.7354,-340.076 6.00231,-231 -2.06001,-208.867 -1.88228,-200.197 6.00231,-178 10.7004,-164.774 19.5923,-152.324 28.5903,-142.132"/>
<text text-anchor="middle" x="17.0903" y="-145.132" font-family="Times New Roman,serif" font-size="10.00">stops</text>
<text text-anchor="middle" x="249.761" y="-484.407" font-family="Times New Roman,serif" font-size="10.00">room</text>
</g>
<!-- stop9 -->
<g id="node10" class="node"><title>stop9</title>
<polygon fill="none" stroke="black" points="125.002,-209.5 125.002,-226.5 189.002,-226.5 189.002,-209.5 125.002,-209.5"/>
<text text-anchor="start" x="134.002" y="-216.5" font-family="Times New Roman,serif" text-decoration="underline" font-size="10.00">stop9 :Stop</text>
<polygon fill="none" stroke="black" points="125.002,-181.5 125.002,-209.5 189.002,-209.5 189.002,-181.5 125.002,-181.5"/>
<text text-anchor="start" x="128.002" y="-198.5" font-family="Times New Roman,serif" font-size="10.00">id = &quot;stop9&quot;</text>
<text text-anchor="start" x="128.002" y="-187.5" font-family="Times New Roman,serif" font-size="10.00">motivation = 0</text>
</g>
<!-- r1&#45;&gt;stop9 -->
<g id="edge8" class="edge"><title>r1&#45;&gt;stop9</title>
<path fill="none" stroke="black" d="M260.382,-478.456C241.091,-467.171 219.381,-451.188 206.002,-431 164.285,-368.05 157.436,-275.542 156.725,-231.135"/>
<text text-anchor="middle" x="145.225" y="-234.135" font-family="Times New Roman,serif" font-size="10.00">stops</text>
<text text-anchor="middle" x="249.882" y="-470.456" font-family="Times New Roman,serif" font-size="10.00">room</text>
</g>
<!-- stop11 -->
<g id="node11" class="node"><title>stop11</title>
<polygon fill="none" stroke="black" points="365.002,-209.5 365.002,-226.5 433.002,-226.5 433.002,-209.5 365.002,-209.5"/>
<text text-anchor="start" x="373.502" y="-216.5" font-family="Times New Roman,serif" text-decoration="underline" font-size="10.00">stop11 :Stop</text>
<polygon fill="none" stroke="black" points="365.002,-181.5 365.002,-209.5 433.002,-209.5 433.002,-181.5 365.002,-181.5"/>
<text text-anchor="start" x="368.002" y="-198.5" font-family="Times New Roman,serif" font-size="10.00">id = &quot;stop11&quot;</text>
<text text-anchor="start" x="368.002" y="-187.5" font-family="Times New Roman,serif" font-size="10.00">motivation = 29</text>
</g>
<!-- r1&#45;&gt;stop11 -->
<g id="edge9" class="edge"><title>r1&#45;&gt;stop11</title>
<path fill="none" stroke="black" d="M309.615,-466.69C312.653,-455.454 316.046,-442.676 319.002,-431 337.39,-358.37 328.087,-335.69 358.002,-267 363.433,-254.529 371.396,-241.842 378.863,-231.255"/>
<text text-anchor="middle" x="367.363" y="-234.255" font-family="Times New Roman,serif" font-size="10.00">stops</text>
<text text-anchor="middle" x="299.115" y="-458.69" font-family="Times New Roman,serif" font-size="10.00">room</text>
</g>
<!-- stop13 -->
<g id="node12" class="node"><title>stop13</title>
<polygon fill="none" stroke="black" points="420.002,-404 420.002,-421 484.002,-421 484.002,-404 420.002,-404"/>
<text text-anchor="start" x="426.502" y="-411" font-family="Times New Roman,serif" text-decoration="underline" font-size="10.00">stop13 :Stop</text>
<polygon fill="none" stroke="black" points="420.002,-376 420.002,-404 484.002,-404 484.002,-376 420.002,-376"/>
<text text-anchor="start" x="423.002" y="-393" font-family="Times New Roman,serif" font-size="10.00">id = &quot;stop13&quot;</text>
<text text-anchor="start" x="423.002" y="-382" font-family="Times New Roman,serif" font-size="10.00">motivation = 0</text>
</g>
<!-- r1&#45;&gt;stop13 -->
<g id="edge10" class="edge"><title>r1&#45;&gt;stop13</title>
<path fill="none" stroke="black" d="M341.865,-471.48C363.875,-457.195 390.9,-439.656 412.671,-425.526"/>
<text text-anchor="middle" x="401.171" y="-428.526" font-family="Times New Roman,serif" font-size="10.00">stops</text>
<text text-anchor="middle" x="352.365" y="-474.48" font-family="Times New Roman,serif" font-size="10.00">room</text>
</g>
<!-- r2&#45;&gt;r5 -->
<g id="edge11" class="edge"><title>r2&#45;&gt;r5</title>
<path fill="none" stroke="black" d="M310.574,-367.529C328.644,-355.955 349.241,-342.762 367.405,-331.128"/>
<text text-anchor="middle" x="346.905" y="-323.128" font-family="Times New Roman,serif" font-size="10.00">neighbors</text>
<text text-anchor="middle" x="331.074" y="-370.529" font-family="Times New Roman,serif" font-size="10.00">neighbors</text>
</g>
<!-- r2&#45;&gt;stop2 -->
<g id="edge12" class="edge"><title>r2&#45;&gt;stop2</title>
<path fill="none" stroke="black" d="M310.716,-386.348C354.286,-374.896 419.948,-355.582 474.002,-331 477.586,-329.37 481.23,-327.541 484.837,-325.608"/>
<text text-anchor="middle" x="496.337" y="-328.608" font-family="Times New Roman,serif" font-size="10.00">stops</text>
<text text-anchor="middle" x="321.216" y="-389.348" font-family="Times New Roman,serif" font-size="10.00">room</text>
</g>
<!-- stop5 -->
<g id="node13" class="node"><title>stop5</title>
<polygon fill="none" stroke="black" points="124.002,-120.5 124.002,-137.5 192.002,-137.5 192.002,-120.5 124.002,-120.5"/>
<text text-anchor="start" x="135.002" y="-127.5" font-family="Times New Roman,serif" text-decoration="underline" font-size="10.00">stop5 :Stop</text>
<polygon fill="none" stroke="black" points="124.002,-92.5 124.002,-120.5 192.002,-120.5 192.002,-92.5 124.002,-92.5"/>
<text text-anchor="start" x="127.002" y="-109.5" font-family="Times New Roman,serif" font-size="10.00">id = &quot;stop5&quot;</text>
<text text-anchor="start" x="127.002" y="-98.5" font-family="Times New Roman,serif" font-size="10.00">motivation = 17</text>
</g>
<!-- r2&#45;&gt;stop5 -->
<g id="edge13" class="edge"><title>r2&#45;&gt;stop5</title>
<path fill="none" stroke="black" d="M256.546,-366.72C245.457,-314.319 222.405,-211.264 206.002,-178 199.713,-165.245 190.508,-152.607 181.837,-142.136"/>
<text text-anchor="middle" x="170.337" y="-145.136" font-family="Times New Roman,serif" font-size="10.00">stops</text>
<text text-anchor="middle" x="246.046" y="-358.72" font-family="Times New Roman,serif" font-size="10.00">room</text>
</g>
<!-- stop10 -->
<g id="node14" class="node"><title>stop10</title>
<polygon fill="none" stroke="black" points="119.002,-31.5 119.002,-48.5 183.002,-48.5 183.002,-31.5 119.002,-31.5"/>
<text text-anchor="start" x="125.502" y="-38.5" font-family="Times New Roman,serif" text-decoration="underline" font-size="10.00">stop10 :Stop</text>
<polygon fill="none" stroke="black" points="119.002,-3.5 119.002,-31.5 183.002,-31.5 183.002,-3.5 119.002,-3.5"/>
<text text-anchor="start" x="122.002" y="-20.5" font-family="Times New Roman,serif" font-size="10.00">id = &quot;stop10&quot;</text>
<text text-anchor="start" x="122.002" y="-9.5" font-family="Times New Roman,serif" font-size="10.00">motivation = 0</text>
</g>
<!-- r2&#45;&gt;stop10 -->
<g id="edge14" class="edge"><title>r2&#45;&gt;stop10</title>
<path fill="none" stroke="black" d="M263.768,-366.575C263.886,-308.312 257.953,-181.087 209.002,-89 201.976,-75.7817 191.341,-63.3334 181.089,-53.14"/>
<text text-anchor="middle" x="169.589" y="-56.14" font-family="Times New Roman,serif" font-size="10.00">stops</text>
<text text-anchor="middle" x="274.268" y="-358.575" font-family="Times New Roman,serif" font-size="10.00">room</text>
</g>
<!-- stop15 -->
<g id="node15" class="node"><title>stop15</title>
<polygon fill="none" stroke="black" points="282.002,-120.5 282.002,-137.5 346.002,-137.5 346.002,-120.5 282.002,-120.5"/>
<text text-anchor="start" x="288.502" y="-127.5" font-family="Times New Roman,serif" text-decoration="underline" font-size="10.00">stop15 :Stop</text>
<polygon fill="none" stroke="black" points="282.002,-92.5 282.002,-120.5 346.002,-120.5 346.002,-92.5 282.002,-92.5"/>
<text text-anchor="start" x="285.002" y="-109.5" font-family="Times New Roman,serif" font-size="10.00">id = &quot;stop15&quot;</text>
<text text-anchor="start" x="285.002" y="-98.5" font-family="Times New Roman,serif" font-size="10.00">motivation = 9</text>
</g>
<!-- r2&#45;&gt;stop15 -->
<g id="edge15" class="edge"><title>r2&#45;&gt;stop15</title>
<path fill="none" stroke="black" d="M269.783,-366.687C272.154,-355.45 274.777,-342.673 277.002,-331 289.954,-263.069 303.296,-182.648 309.852,-142.307"/>
<text text-anchor="middle" x="298.352" y="-145.307" font-family="Times New Roman,serif" font-size="10.00">stops</text>
<text text-anchor="middle" x="259.283" y="-358.687" font-family="Times New Roman,serif" font-size="10.00">room</text>
</g>
<!-- r4 -->
<g id="node5" class="node"><title>r4</title>
<polygon fill="none" stroke="black" points="703.002,-410 703.002,-427 768.002,-427 768.002,-410 703.002,-410"/>
<text text-anchor="start" x="717.502" y="-417" font-family="Times New Roman,serif" text-decoration="underline" font-size="10.00">r4 :Room</text>
<polygon fill="none" stroke="black" points="703.002,-371 703.002,-410 768.002,-410 768.002,-371 703.002,-371"/>
<text text-anchor="start" x="706.002" y="-399" font-family="Times New Roman,serif" font-size="10.00">credits = 0</text>
<text text-anchor="start" x="706.002" y="-388" font-family="Times New Roman,serif" font-size="10.00">id = &quot;r4&quot;</text>
<text text-anchor="start" x="706.002" y="-377" font-family="Times New Roman,serif" font-size="10.00">topic = &quot;exam&quot;</text>
</g>
<!-- r4&#45;&gt;r5 -->
<g id="edge16" class="edge"><title>r4&#45;&gt;r5</title>
<path fill="none" stroke="black" d="M694.271,-390.693C642.104,-380.627 549.426,-360.347 474.002,-331 471.129,-329.882 468.217,-328.655 465.306,-327.355"/>
<text text-anchor="middle" x="444.806" y="-330.355" font-family="Times New Roman,serif" font-size="10.00">neighbors</text>
<text text-anchor="middle" x="673.771" y="-393.693" font-family="Times New Roman,serif" font-size="10.00">neighbors</text>
</g>
<!-- stop6 -->
<g id="node16" class="node"><title>stop6</title>
<polygon fill="none" stroke="black" points="380.002,-120.5 380.002,-137.5 448.002,-137.5 448.002,-120.5 380.002,-120.5"/>
<text text-anchor="start" x="391.002" y="-127.5" font-family="Times New Roman,serif" text-decoration="underline" font-size="10.00">stop6 :Stop</text>
<polygon fill="none" stroke="black" points="380.002,-92.5 380.002,-120.5 448.002,-120.5 448.002,-92.5 380.002,-92.5"/>
<text text-anchor="start" x="383.002" y="-109.5" font-family="Times New Roman,serif" font-size="10.00">id = &quot;stop6&quot;</text>
<text text-anchor="start" x="383.002" y="-98.5" font-family="Times New Roman,serif" font-size="10.00">motivation = 37</text>
</g>
<!-- r4&#45;&gt;stop6 -->
<g id="edge17" class="edge"><title>r4&#45;&gt;stop6</title>
<path fill="none" stroke="black" d="M740.833,-366.749C747.766,-318.976 752.819,-228.071 703.002,-178 665.275,-140.081 515.994,-158.159 465.002,-142 462.077,-141.073 459.112,-139.997 456.16,-138.82"/>
<text text-anchor="middle" x="467.66" y="-141.82" font-family="Times New Roman,serif" font-size="10.00">stops</text>
<text text-anchor="middle" x="730.333" y="-358.749" font-family="Times New Roman,serif" font-size="10.00">room</text>
</g>
<!-- stop8 -->
<g id="node17" class="node"><title>stop8</title>
<polygon fill="none" stroke="black" points="831.002,-209.5 831.002,-226.5 895.002,-226.5 895.002,-209.5 831.002,-209.5"/>
<text text-anchor="start" x="840.002" y="-216.5" font-family="Times New Roman,serif" text-decoration="underline" font-size="10.00">stop8 :Stop</text>
<polygon fill="none" stroke="black" points="831.002,-181.5 831.002,-209.5 895.002,-209.5 895.002,-181.5 831.002,-181.5"/>
<text text-anchor="start" x="834.002" y="-198.5" font-family="Times New Roman,serif" font-size="10.00">id = &quot;stop8&quot;</text>
<text text-anchor="start" x="834.002" y="-187.5" font-family="Times New Roman,serif" font-size="10.00">motivation = 8</text>
</g>
<!-- r4&#45;&gt;stop8 -->
<g id="edge18" class="edge"><title>r4&#45;&gt;stop8</title>
<path fill="none" stroke="black" d="M775.566,-385.762C801.957,-375.555 834.596,-358.211 852.002,-331 871.213,-300.968 870.42,-258.301 867.308,-231.264"/>
<text text-anchor="middle" x="855.808" y="-234.264" font-family="Times New Roman,serif" font-size="10.00">stops</text>
<text text-anchor="middle" x="786.066" y="-388.762" font-family="Times New Roman,serif" font-size="10.00">room</text>
</g>
<!-- stop14 -->
<g id="node18" class="node"><title>stop14</title>
<polygon fill="none" stroke="black" points="631.002,-304 631.002,-321 699.002,-321 699.002,-304 631.002,-304"/>
<text text-anchor="start" x="639.502" y="-311" font-family="Times New Roman,serif" text-decoration="underline" font-size="10.00">stop14 :Stop</text>
<polygon fill="none" stroke="black" points="631.002,-276 631.002,-304 699.002,-304 699.002,-276 631.002,-276"/>
<text text-anchor="start" x="634.002" y="-293" font-family="Times New Roman,serif" font-size="10.00">id = &quot;stop14&quot;</text>
<text text-anchor="start" x="634.002" y="-282" font-family="Times New Roman,serif" font-size="10.00">motivation = 17</text>
</g>
<!-- r4&#45;&gt;stop14 -->
<g id="edge19" class="edge"><title>r4&#45;&gt;stop14</title>
<path fill="none" stroke="black" d="M712.854,-366.992C703.321,-353.646 692.311,-338.232 683.257,-325.556"/>
<text text-anchor="middle" x="671.757" y="-328.556" font-family="Times New Roman,serif" font-size="10.00">stops</text>
<text text-anchor="middle" x="702.354" y="-358.992" font-family="Times New Roman,serif" font-size="10.00">room</text>
</g>
<!-- stop17 -->
<g id="node19" class="node"><title>stop17</title>
<polygon fill="none" stroke="black" points="771.002,-304 771.002,-321 835.002,-321 835.002,-304 771.002,-304"/>
<text text-anchor="start" x="777.502" y="-311" font-family="Times New Roman,serif" text-decoration="underline" font-size="10.00">stop17 :Stop</text>
<polygon fill="none" stroke="black" points="771.002,-276 771.002,-304 835.002,-304 835.002,-276 771.002,-276"/>
<text text-anchor="start" x="774.002" y="-293" font-family="Times New Roman,serif" font-size="10.00">id = &quot;stop17&quot;</text>
<text text-anchor="start" x="774.002" y="-282" font-family="Times New Roman,serif" font-size="10.00">motivation = 0</text>
</g>
<!-- r4&#45;&gt;stop17 -->
<g id="edge20" class="edge"><title>r4&#45;&gt;stop17</title>
<path fill="none" stroke="black" d="M756.518,-366.992C765.778,-353.646 776.474,-338.232 785.269,-325.556"/>
<text text-anchor="middle" x="773.769" y="-328.556" font-family="Times New Roman,serif" font-size="10.00">stops</text>
<text text-anchor="middle" x="767.018" y="-358.992" font-family="Times New Roman,serif" font-size="10.00">room</text>
</g>
<!-- r5&#45;&gt;stop3 -->
<g id="edge21" class="edge"><title>r5&#45;&gt;stop3</title>
<path fill="none" stroke="black" d="M366.953,-291.201C305.293,-281.781 196.771,-262.293 108.002,-231 105.108,-229.98 102.167,-228.833 99.2328,-227.604"/>
<text text-anchor="middle" x="110.733" y="-230.604" font-family="Times New Roman,serif" font-size="10.00">stops</text>
<text text-anchor="middle" x="356.453" y="-294.201" font-family="Times New Roman,serif" font-size="10.00">room</text>
</g>
<!-- stop7 -->
<g id="node20" class="node"><title>stop7</title>
<polygon fill="none" stroke="black" points="550.002,-31.5 550.002,-48.5 614.002,-48.5 614.002,-31.5 550.002,-31.5"/>
<text text-anchor="start" x="559.002" y="-38.5" font-family="Times New Roman,serif" text-decoration="underline" font-size="10.00">stop7 :Stop</text>
<polygon fill="none" stroke="black" points="550.002,-3.5 550.002,-31.5 614.002,-31.5 614.002,-3.5 550.002,-3.5"/>
<text text-anchor="start" x="553.002" y="-20.5" font-family="Times New Roman,serif" font-size="10.00">id = &quot;stop7&quot;</text>
<text text-anchor="start" x="553.002" y="-9.5" font-family="Times New Roman,serif" font-size="10.00">motivation = 8</text>
</g>
<!-- r5&#45;&gt;stop7 -->
<g id="edge22" class="edge"><title>r5&#45;&gt;stop7</title>
<path fill="none" stroke="black" d="M456.779,-266.844C491.004,-238.289 538.172,-192.823 563.002,-142 576.801,-113.756 580.838,-77.4164 581.886,-53.3355"/>
<text text-anchor="middle" x="570.386" y="-56.3355" font-family="Times New Roman,serif" font-size="10.00">stops</text>
<text text-anchor="middle" x="446.279" y="-258.844" font-family="Times New Roman,serif" font-size="10.00">room</text>
</g>
<!-- stop12 -->
<g id="node21" class="node"><title>stop12</title>
<polygon fill="none" stroke="black" points="618.002,-209.5 618.002,-226.5 686.002,-226.5 686.002,-209.5 618.002,-209.5"/>
<text text-anchor="start" x="626.502" y="-216.5" font-family="Times New Roman,serif" text-decoration="underline" font-size="10.00">stop12 :Stop</text>
<polygon fill="none" stroke="black" points="618.002,-181.5 618.002,-209.5 686.002,-209.5 686.002,-181.5 618.002,-181.5"/>
<text text-anchor="start" x="621.002" y="-198.5" font-family="Times New Roman,serif" font-size="10.00">id = &quot;stop12&quot;</text>
<text text-anchor="start" x="621.002" y="-187.5" font-family="Times New Roman,serif" font-size="10.00">motivation = 17</text>
</g>
<!-- r5&#45;&gt;stop12 -->
<g id="edge23" class="edge"><title>r5&#45;&gt;stop12</title>
<path fill="none" stroke="black" d="M465.033,-270.916C468.039,-269.53 471.044,-268.212 474.002,-267 526.314,-245.564 543.036,-250.763 596.002,-231 600.506,-229.32 605.157,-227.442 609.764,-225.488"/>
<text text-anchor="middle" x="598.264" y="-228.488" font-family="Times New Roman,serif" font-size="10.00">stops</text>
<text text-anchor="middle" x="475.533" y="-262.916" font-family="Times New Roman,serif" font-size="10.00">room</text>
</g>
<!-- stop16 -->
<g id="node22" class="node"><title>stop16</title>
<polygon fill="none" stroke="black" points="482.002,-120.5 482.002,-137.5 546.002,-137.5 546.002,-120.5 482.002,-120.5"/>
<text text-anchor="start" x="488.502" y="-127.5" font-family="Times New Roman,serif" text-decoration="underline" font-size="10.00">stop16 :Stop</text>
<polygon fill="none" stroke="black" points="482.002,-92.5 482.002,-120.5 546.002,-120.5 546.002,-92.5 482.002,-92.5"/>
<text text-anchor="start" x="485.002" y="-109.5" font-family="Times New Roman,serif" font-size="10.00">id = &quot;stop16&quot;</text>
<text text-anchor="start" x="485.002" y="-98.5" font-family="Times New Roman,serif" font-size="10.00">motivation = 0</text>
</g>
<!-- r5&#45;&gt;stop16 -->
<g id="edge24" class="edge"><title>r5&#45;&gt;stop16</title>
<path fill="none" stroke="black" d="M432.849,-266.799C451.894,-231.528 482.54,-174.769 500.219,-142.027"/>
<text text-anchor="middle" x="511.719" y="-145.027" font-family="Times New Roman,serif" font-size="10.00">stops</text>
<text text-anchor="middle" x="422.349" y="-258.799" font-family="Times New Roman,serif" font-size="10.00">room</text>
</g>
<!-- stop2&#45;&gt;stop11 -->
<g id="edge25" class="edge"><title>stop2&#45;&gt;stop11</title>
<path fill="none" stroke="black" d="M490.239,-272.479C472.757,-259.645 451.617,-244.126 434.09,-231.259"/>
<text text-anchor="middle" x="425.59" y="-234.259" font-family="Times New Roman,serif" font-size="10.00">next</text>
<text text-anchor="middle" x="499.739" y="-264.479" font-family="Times New Roman,serif" font-size="10.00">prev</text>
</g>
<!-- stop2&#45;&gt;stop12 -->
<g id="edge26" class="edge"><title>stop2&#45;&gt;stop12</title>
<path fill="none" stroke="black" d="M560.042,-272.479C577.663,-259.645 598.97,-244.126 616.636,-231.259"/>
<text text-anchor="middle" x="625.136" y="-234.259" font-family="Times New Roman,serif" font-size="10.00">next</text>
<text text-anchor="middle" x="550.542" y="-264.479" font-family="Times New Roman,serif" font-size="10.00">prev</text>
</g>
<!-- stop3&#45;&gt;stop4 -->
<g id="edge27" class="edge"><title>stop3&#45;&gt;stop4</title>
<path fill="none" stroke="black" d="M56.7077,-177.868C56.5786,-166.64 56.4275,-153.491 56.2983,-142.25"/>
<text text-anchor="middle" x="47.7983" y="-145.25" font-family="Times New Roman,serif" font-size="10.00">next</text>
<text text-anchor="middle" x="47.2077" y="-169.868" font-family="Times New Roman,serif" font-size="10.00">prev</text>
</g>
<!-- stop3&#45;&gt;stop5 -->
<g id="edge28" class="edge"><title>stop3&#45;&gt;stop5</title>
<path fill="none" stroke="black" d="M86.7594,-177.868C99.7936,-166.64 115.059,-153.491 128.109,-142.25"/>
<text text-anchor="middle" x="119.609" y="-145.25" font-family="Times New Roman,serif" font-size="10.00">next</text>
<text text-anchor="middle" x="77.2594" y="-169.868" font-family="Times New Roman,serif" font-size="10.00">prev</text>
</g>
<!-- stop3&#45;&gt;stop6 -->
<g id="edge29" class="edge"><title>stop3&#45;&gt;stop6</title>
<path fill="none" stroke="black" d="M99.15,-181.146C102.104,-179.978 105.072,-178.913 108.002,-178 217.281,-143.963 253.723,-176.037 363.002,-142 365.932,-141.087 368.9,-140.022 371.855,-138.854"/>
<text text-anchor="middle" x="363.355" y="-141.854" font-family="Times New Roman,serif" font-size="10.00">next</text>
<text text-anchor="middle" x="108.65" y="-173.146" font-family="Times New Roman,serif" font-size="10.00">prev</text>
</g>
<!-- stop4&#45;&gt;stop10 -->
<g id="edge30" class="edge"><title>stop4&#45;&gt;stop10</title>
<path fill="none" stroke="black" d="M83.9916,-88.8677C96.2515,-77.6402 110.61,-64.4906 122.885,-53.2497"/>
<text text-anchor="middle" x="114.385" y="-56.2497" font-family="Times New Roman,serif" font-size="10.00">next</text>
<text text-anchor="middle" x="74.4916" y="-80.8677" font-family="Times New Roman,serif" font-size="10.00">prev</text>
</g>
<!-- stop9&#45;&gt;stop5 -->
<g id="edge31" class="edge"><title>stop9&#45;&gt;stop5</title>
<path fill="none" stroke="black" d="M157.297,-177.868C157.426,-166.64 157.577,-153.491 157.706,-142.25"/>
<text text-anchor="middle" x="148.206" y="-145.25" font-family="Times New Roman,serif" font-size="10.00">prev</text>
<text text-anchor="middle" x="148.797" y="-169.868" font-family="Times New Roman,serif" font-size="10.00">next</text>
</g>
<!-- stop11&#45;&gt;stop15 -->
<g id="edge32" class="edge"><title>stop11&#45;&gt;stop15</title>
<path fill="none" stroke="black" d="M373.959,-177.868C362.99,-166.64 350.143,-153.491 339.16,-142.25"/>
<text text-anchor="middle" x="330.66" y="-145.25" font-family="Times New Roman,serif" font-size="10.00">next</text>
<text text-anchor="middle" x="364.459" y="-169.868" font-family="Times New Roman,serif" font-size="10.00">prev</text>
</g>
<!-- stop11&#45;&gt;stop16 -->
<g id="edge33" class="edge"><title>stop11&#45;&gt;stop16</title>
<path fill="none" stroke="black" d="M432.884,-177.868C447.725,-166.64 465.107,-153.491 479.965,-142.25"/>
<text text-anchor="middle" x="488.465" y="-145.25" font-family="Times New Roman,serif" font-size="10.00">next</text>
<text text-anchor="middle" x="423.384" y="-169.868" font-family="Times New Roman,serif" font-size="10.00">prev</text>
</g>
<!-- stop13&#45;&gt;stop12 -->
<g id="edge34" class="edge"><title>stop13&#45;&gt;stop12</title>
<path fill="none" stroke="black" d="M492.088,-382.956C518.258,-371.648 551.912,-354.136 576.002,-331 599.862,-308.086 596.863,-295.294 614.002,-267 621.155,-255.192 629.177,-242.176 636.001,-231.171"/>
<text text-anchor="middle" x="645.501" y="-234.171" font-family="Times New Roman,serif" font-size="10.00">prev</text>
<text text-anchor="middle" x="500.588" y="-385.956" font-family="Times New Roman,serif" font-size="10.00">next</text>
</g>
<!-- stop6&#45;&gt;stop7 -->
<g id="edge35" class="edge"><title>stop6&#45;&gt;stop7</title>
<path fill="none" stroke="black" d="M456.396,-92.5462C482.641,-78.955 516.136,-61.6095 541.936,-48.2488"/>
<text text-anchor="middle" x="533.436" y="-51.2488" font-family="Times New Roman,serif" font-size="10.00">next</text>
<text text-anchor="middle" x="465.896" y="-84.5462" font-family="Times New Roman,serif" font-size="10.00">prev</text>
</g>
<!-- stop8&#45;&gt;stop7 -->
<g id="edge36" class="edge"><title>stop8&#45;&gt;stop7</title>
<path fill="none" stroke="black" d="M822.742,-178.283C769.324,-144.826 675.569,-86.1037 622.188,-52.6697"/>
<text text-anchor="middle" x="631.688" y="-55.6697" font-family="Times New Roman,serif" font-size="10.00">prev</text>
<text text-anchor="middle" x="814.242" y="-181.283" font-family="Times New Roman,serif" font-size="10.00">next</text>
</g>
<!-- stop14&#45;&gt;stop12 -->
<g id="edge37" class="edge"><title>stop14&#45;&gt;stop12</title>
<path fill="none" stroke="black" d="M661.381,-272.234C659.578,-259.404 657.405,-243.939 655.604,-231.128"/>
<text text-anchor="middle" x="665.104" y="-234.128" font-family="Times New Roman,serif" font-size="10.00">prev</text>
<text text-anchor="middle" x="652.881" y="-264.234" font-family="Times New Roman,serif" font-size="10.00">next</text>
</g>
<!-- stop17&#45;&gt;stop16 -->
<g id="edge38" class="edge"><title>stop17&#45;&gt;stop16</title>
<path fill="none" stroke="black" d="M798.177,-272.019C791.727,-244.636 777.611,-202.193 749.002,-178 719.698,-153.22 613.284,-132.59 554.212,-122.734"/>
<text text-anchor="middle" x="563.712" y="-125.734" font-family="Times New Roman,serif" font-size="10.00">prev</text>
<text text-anchor="middle" x="789.677" y="-264.019" font-family="Times New Roman,serif" font-size="10.00">next</text>
</g>
</g>
</svg>
