<?xml version="1.0" encoding="UTF-8" standalone="no"?>
<!DOCTYPE svg PUBLIC "-//W3C//DTD SVG 1.1//EN"
 "http://www.w3.org/Graphics/SVG/1.1/DTD/svg11.dtd">
<!-- Generated by graphviz version 2.38.0 (20140413.2041)
 -->
<!-- Title: uks.debuggen.studyright.StudyRight Pages: 1 -->
<svg width="477px" height="483px"
 viewBox="0.00 0.00 477.00 483.00" xmlns="http://www.w3.org/2000/svg" xmlns:xlink="http://www.w3.org/1999/xlink">
<g id="graph0" class="graph" transform="scale(1.0 1.0) rotate(0) translate(4 479)">
<title>uks.debuggen.studyright.StudyRight</title>
<polygon fill="white" stroke="none" points="-4,4 -4,-479 473,-479 473,4 -4,4"/>
<!-- studyRight -->
<g id="node1" class="node"><title>studyRight</title>
<polygon fill="none" stroke="black" points="112,-443 112,-460 210,-460 210,-443 112,-443"/>
<text text-anchor="start" x="115" y="-450" font-family="Times New Roman,serif" text-decoration="underline" font-size="10.00">studyRight :University</text>
<polygon fill="none" stroke="black" points="112,-426 112,-443 210,-443 210,-426 112,-426"/>
<text text-anchor="start" x="124.5" y="-432" font-family="Times New Roman,serif" font-size="10.00">id = &quot;StudyRight&quot;</text>
</g>
<!-- math -->
<g id="node2" class="node"><title>math</title>
<polygon fill="none" stroke="black" points="134,-342.5 134,-359.5 188,-359.5 188,-342.5 134,-342.5"/>
<text text-anchor="start" x="137" y="-349.5" font-family="Times New Roman,serif" text-decoration="underline" font-size="10.00">math :Room</text>
<polygon fill="none" stroke="black" points="134,-314.5 134,-342.5 188,-342.5 188,-314.5 134,-314.5"/>
<text text-anchor="start" x="138" y="-331.5" font-family="Times New Roman,serif" font-size="10.00">credits = 23</text>
<text text-anchor="start" x="138" y="-320.5" font-family="Times New Roman,serif" font-size="10.00">id = &quot;math&quot;</text>
</g>
<!-- studyRight&#45;&gt;math -->
<g id="edge2" class="edge"><title>studyRight&#45;&gt;math</title>
<path fill="none" stroke="black" d="M161,-421.552C161,-405.056 161,-381.764 161,-364.043"/>
<text text-anchor="middle" x="148.5" y="-367.043" font-family="Times New Roman,serif" font-size="10.00">rooms</text>
<text text-anchor="middle" x="154.5" y="-413.552" font-family="Times New Roman,serif" font-size="10.00">uni</text>
</g>
<!-- exam -->
<g id="node3" class="node"><title>exam</title>
<polygon fill="none" stroke="black" points="8,-342.5 8,-359.5 62,-359.5 62,-342.5 8,-342.5"/>
<text text-anchor="start" x="11" y="-349.5" font-family="Times New Roman,serif" text-decoration="underline" font-size="10.00">exam :Room</text>
<polygon fill="none" stroke="black" points="8,-314.5 8,-342.5 62,-342.5 62,-314.5 8,-314.5"/>
<text text-anchor="start" x="12" y="-331.5" font-family="Times New Roman,serif" font-size="10.00">credits = 0</text>
<text text-anchor="start" x="12" y="-320.5" font-family="Times New Roman,serif" font-size="10.00">id = &quot;exam&quot;</text>
</g>
<!-- studyRight&#45;&gt;exam -->
<g id="edge3" class="edge"><title>studyRight&#45;&gt;exam</title>
<path fill="none" stroke="black" d="M136.407,-421.798C116.354,-405.326 87.9058,-381.958 66.2422,-364.163"/>
<text text-anchor="middle" x="53.7422" y="-367.163" font-family="Times New Roman,serif" font-size="10.00">rooms</text>
<text text-anchor="middle" x="129.907" y="-413.798" font-family="Times New Roman,serif" font-size="10.00">uni</text>
</g>
<!-- modeling -->
<g id="node4" class="node"><title>modeling</title>
<polygon fill="none" stroke="black" points="63,-237 63,-254 134,-254 134,-237 63,-237"/>
<text text-anchor="start" x="66" y="-244" font-family="Times New Roman,serif" text-decoration="underline" font-size="10.00">modeling :Room</text>
<polygon fill="none" stroke="black" points="63,-209 63,-237 134,-237 134,-209 63,-209"/>
<text text-anchor="start" x="66.5" y="-226" font-family="Times New Roman,serif" font-size="10.00">credits = 42</text>
<text text-anchor="start" x="66.5" y="-215" font-family="Times New Roman,serif" font-size="10.00">id = &quot;modeling&quot;</text>
</g>
<!-- studyRight&#45;&gt;modeling -->
<g id="edge4" class="edge"><title>studyRight&#45;&gt;modeling</title>
<path fill="none" stroke="black" d="M144.331,-421.894C134.744,-409.224 123.372,-392.08 117,-375 102.526,-336.199 98.8423,-287.803 98.0357,-258.705"/>
<text text-anchor="middle" x="85.5357" y="-261.705" font-family="Times New Roman,serif" font-size="10.00">rooms</text>
<text text-anchor="middle" x="141.081" y="-413.894" font-family="Times New Roman,serif" font-size="10.00">uni</text>
</g>
<!-- algebra -->
<g id="node5" class="node"><title>algebra</title>
<polygon fill="none" stroke="black" points="138,-137 138,-154 202,-154 202,-137 138,-137"/>
<text text-anchor="start" x="141" y="-144" font-family="Times New Roman,serif" text-decoration="underline" font-size="10.00">algebra :Room</text>
<polygon fill="none" stroke="black" points="138,-109 138,-137 202,-137 202,-109 138,-109"/>
<text text-anchor="start" x="142" y="-126" font-family="Times New Roman,serif" font-size="10.00">credits = 12</text>
<text text-anchor="start" x="142" y="-115" font-family="Times New Roman,serif" font-size="10.00">id = &quot;algebra&quot;</text>
</g>
<!-- studyRight&#45;&gt;algebra -->
<g id="edge5" class="edge"><title>studyRight&#45;&gt;algebra</title>
<path fill="none" stroke="black" d="M178.718,-421.881C188.552,-409.339 199.818,-392.333 205,-375 227.923,-298.334 198.112,-203.363 180.798,-158.611"/>
<text text-anchor="middle" x="168.298" y="-161.611" font-family="Times New Roman,serif" font-size="10.00">rooms</text>
<text text-anchor="middle" x="172.218" y="-413.881" font-family="Times New Roman,serif" font-size="10.00">uni</text>
</g>
<!-- carli -->
<g id="node6" class="node"><title>carli</title>
<polygon fill="none" stroke="black" points="261,-353.5 261,-370.5 352,-370.5 352,-353.5 261,-353.5"/>
<text text-anchor="start" x="280" y="-360.5" font-family="Times New Roman,serif" text-decoration="underline" font-size="10.00">carli :Student</text>
<polygon fill="none" stroke="black" points="261,-303.5 261,-353.5 352,-353.5 352,-303.5 261,-303.5"/>
<text text-anchor="start" x="264" y="-342.5" font-family="Times New Roman,serif" font-size="10.00">birthYear = 1970</text>
<text text-anchor="start" x="264" y="-331.5" font-family="Times New Roman,serif" font-size="10.00">id = &quot;carli&quot;</text>
<text text-anchor="start" x="264" y="-320.5" font-family="Times New Roman,serif" font-size="10.00">name = &quot;Carli&quot;</text>
<text text-anchor="start" x="264" y="-309.5" font-family="Times New Roman,serif" font-size="10.00">studentId = &quot;stud42&quot;</text>
</g>
<!-- studyRight&#45;&gt;carli -->
<g id="edge1" class="edge"><title>studyRight&#45;&gt;carli</title>
<path fill="none" stroke="black" d="M189.302,-421.798C207.846,-408.562 232.628,-390.873 254.584,-375.2"/>
<text text-anchor="middle" x="238.084" y="-378.2" font-family="Times New Roman,serif" font-size="10.00">persons</text>
<text text-anchor="middle" x="195.802" y="-413.798" font-family="Times New Roman,serif" font-size="10.00">uni</text>
</g>
<!-- math&#45;&gt;modeling -->
<g id="edge6" class="edge"><title>math&#45;&gt;modeling</title>
<path fill="none" stroke="black" d="M145.427,-310.916C135.735,-294.992 123.312,-274.584 113.612,-258.649"/>
<text text-anchor="middle" x="125.612" y="-261.649" font-family="Times New Roman,serif" font-size="10.00">doors</text>
<text text-anchor="middle" x="133.427" y="-302.916" font-family="Times New Roman,serif" font-size="10.00">doors</text>
</g>
<!-- math&#45;&gt;algebra -->
<g id="edge7" class="edge"><title>math&#45;&gt;algebra</title>
<path fill="none" stroke="black" d="M162.14,-310.727C163.871,-271.582 167.144,-197.584 168.869,-158.564"/>
<text text-anchor="middle" x="180.869" y="-161.564" font-family="Times New Roman,serif" font-size="10.00">doors</text>
<text text-anchor="middle" x="174.14" y="-302.727" font-family="Times New Roman,serif" font-size="10.00">doors</text>
</g>
<!-- exam&#45;&gt;modeling -->
<g id="edge8" class="edge"><title>exam&#45;&gt;modeling</title>
<path fill="none" stroke="black" d="M50.573,-310.916C60.2655,-294.992 72.688,-274.584 82.3878,-258.649"/>
<text text-anchor="middle" x="70.3878" y="-261.649" font-family="Times New Roman,serif" font-size="10.00">doors</text>
<text text-anchor="middle" x="38.573" y="-302.916" font-family="Times New Roman,serif" font-size="10.00">doors</text>
</g>
<!-- modeling&#45;&gt;algebra -->
<g id="edge9" class="edge"><title>modeling&#45;&gt;algebra</title>
<path fill="none" stroke="black" d="M116.917,-205.252C127.5,-190.847 140.647,-172.953 151.209,-158.576"/>
<text text-anchor="middle" x="139.209" y="-161.576" font-family="Times New Roman,serif" font-size="10.00">doors</text>
<text text-anchor="middle" x="104.917" y="-197.252" font-family="Times New Roman,serif" font-size="10.00">doors</text>
</g>
<!-- allTours -->
<g id="node7" class="node"><title>allTours</title>
<polygon fill="none" stroke="black" points="259,-443 259,-460 338,-460 338,-443 259,-443"/>
<text text-anchor="start" x="262" y="-450" font-family="Times New Roman,serif" text-decoration="underline" font-size="10.00">allTours :TourList</text>
<polygon fill="none" stroke="black" points="259,-426 259,-443 338,-443 338,-426 259,-426"/>
<text text-anchor="start" x="268.5" y="-432" font-family="Times New Roman,serif" font-size="10.00">id = &quot;allTours&quot;</text>
</g>
<!-- s01 -->
<g id="node8" class="node"><title>s01</title>
<polygon fill="none" stroke="black" points="386,-454 386,-471 454,-471 454,-454 386,-454"/>
<text text-anchor="start" x="401.5" y="-461" font-family="Times New Roman,serif" text-decoration="underline" font-size="10.00">s01 :Stop</text>
<polygon fill="none" stroke="black" points="386,-415 386,-454 454,-454 454,-415 386,-415"/>
<text text-anchor="start" x="389" y="-443" font-family="Times New Roman,serif" font-size="10.00">id = &quot;s01&quot;</text>
<text text-anchor="start" x="389" y="-432" font-family="Times New Roman,serif" font-size="10.00">motivation = 77</text>
<text text-anchor="start" x="389" y="-421" font-family="Times New Roman,serif" font-size="10.00">room = null</text>
</g>
<!-- s02 -->
<g id="node9" class="node"><title>s02</title>
<polygon fill="none" stroke="black" points="386,-348.5 386,-365.5 454,-365.5 454,-348.5 386,-348.5"/>
<text text-anchor="start" x="401.5" y="-355.5" font-family="Times New Roman,serif" text-decoration="underline" font-size="10.00">s02 :Stop</text>
<polygon fill="none" stroke="black" points="386,-309.5 386,-348.5 454,-348.5 454,-309.5 386,-309.5"/>
<text text-anchor="start" x="389" y="-337.5" font-family="Times New Roman,serif" font-size="10.00">id = &quot;s02&quot;</text>
<text text-anchor="start" x="389" y="-326.5" font-family="Times New Roman,serif" font-size="10.00">motivation = 54</text>
<text text-anchor="start" x="389" y="-315.5" font-family="Times New Roman,serif" font-size="10.00">room = &quot;math&quot;</text>
</g>
<!-- s01&#45;&gt;s02 -->
<g id="edge10" class="edge"><title>s01&#45;&gt;s02</title>
<path fill="none" stroke="black" d="M420,-410.947C420,-397.847 420,-382.629 420,-369.531"/>
<text text-anchor="middle" x="400" y="-372.531" font-family="Times New Roman,serif" font-size="10.00">nextStops</text>
<text text-anchor="middle" x="392.5" y="-402.947" font-family="Times New Roman,serif" font-size="10.00">previousStop</text>
</g>
<!-- s03 -->
<g id="node10" class="node"><title>s03</title>
<polygon fill="none" stroke="black" points="383,-243 383,-260 458,-260 458,-243 383,-243"/>
<text text-anchor="start" x="402" y="-250" font-family="Times New Roman,serif" text-decoration="underline" font-size="10.00">s03 :Stop</text>
<polygon fill="none" stroke="black" points="383,-204 383,-243 458,-243 458,-204 383,-204"/>
<text text-anchor="start" x="386" y="-232" font-family="Times New Roman,serif" font-size="10.00">id = &quot;s03&quot;</text>
<text text-anchor="start" x="386" y="-221" font-family="Times New Roman,serif" font-size="10.00">motivation = 42</text>
<text text-anchor="start" x="386" y="-210" font-family="Times New Roman,serif" font-size="10.00">room = &quot;algebra&quot;</text>
</g>
<!-- s02&#45;&gt;s03 -->
<g id="edge11" class="edge"><title>s02&#45;&gt;s03</title>
<path fill="none" stroke="black" d="M420,-305.447C420,-292.347 420,-277.129 420,-264.031"/>
<text text-anchor="middle" x="400" y="-267.031" font-family="Times New Roman,serif" font-size="10.00">nextStops</text>
<text text-anchor="middle" x="392.5" y="-297.447" font-family="Times New Roman,serif" font-size="10.00">previousStop</text>
</g>
<!-- s05 -->
<g id="node11" class="node"><title>s05</title>
<polygon fill="none" stroke="black" points="379,-143 379,-160 461,-160 461,-143 379,-143"/>
<text text-anchor="start" x="401.5" y="-150" font-family="Times New Roman,serif" text-decoration="underline" font-size="10.00">s05 :Stop</text>
<polygon fill="none" stroke="black" points="379,-104 379,-143 461,-143 461,-104 379,-104"/>
<text text-anchor="start" x="382" y="-132" font-family="Times New Roman,serif" font-size="10.00">id = &quot;s05&quot;</text>
<text text-anchor="start" x="382" y="-121" font-family="Times New Roman,serif" font-size="10.00">motivation = 0</text>
<text text-anchor="start" x="382" y="-110" font-family="Times New Roman,serif" font-size="10.00">room = &quot;modeling&quot;</text>
</g>
<!-- s03&#45;&gt;s05 -->
<g id="edge12" class="edge"><title>s03&#45;&gt;s05</title>
<path fill="none" stroke="black" d="M420,-199.992C420,-188.553 420,-175.594 420,-164.142"/>
<text text-anchor="middle" x="400" y="-167.142" font-family="Times New Roman,serif" font-size="10.00">nextStops</text>
<text text-anchor="middle" x="392.5" y="-191.992" font-family="Times New Roman,serif" font-size="10.00">previousStop</text>
</g>
<!-- s07 -->
<g id="node12" class="node"><title>s07</title>
<polygon fill="none" stroke="black" points="385,-43 385,-60 456,-60 456,-43 385,-43"/>
<text text-anchor="start" x="402" y="-50" font-family="Times New Roman,serif" text-decoration="underline" font-size="10.00">s07 :Stop</text>
<polygon fill="none" stroke="black" points="385,-4 385,-43 456,-43 456,-4 385,-4"/>
<text text-anchor="start" x="388" y="-32" font-family="Times New Roman,serif" font-size="10.00">id = &quot;s07&quot;</text>
<text text-anchor="start" x="388" y="-21" font-family="Times New Roman,serif" font-size="10.00">motivation = &#45;23</text>
<text text-anchor="start" x="388" y="-10" font-family="Times New Roman,serif" font-size="10.00">room = &quot;math&quot;</text>
</g>
<!-- s05&#45;&gt;s07 -->
<g id="edge13" class="edge"><title>s05&#45;&gt;s07</title>
<path fill="none" stroke="black" d="M420,-99.9922C420,-88.5527 420,-75.5938 420,-64.1425"/>
<text text-anchor="middle" x="400" y="-67.1425" font-family="Times New Roman,serif" font-size="10.00">nextStops</text>
<text text-anchor="middle" x="392.5" y="-91.9922" font-family="Times New Roman,serif" font-size="10.00">previousStop</text>
</g>
</g>
</svg>
