<?xml version="1.0" encoding="UTF-8" standalone="no"?>
<!DOCTYPE svg PUBLIC "-//W3C//DTD SVG 1.1//EN"
 "http://www.w3.org/Graphics/SVG/1.1/DTD/svg11.dtd">
<!-- Generated by graphviz version 2.38.0 (20140413.2041)
 -->
<!-- Title: uks.debuggen.studyright.StudyRight Pages: 1 -->
<svg width="368px" height="339px"
 viewBox="0.00 0.00 367.50 339.00" xmlns="http://www.w3.org/2000/svg" xmlns:xlink="http://www.w3.org/1999/xlink">
<g id="graph0" class="graph" transform="scale(1.0 1.0) rotate(0) translate(4 335)">
<title>uks.debuggen.studyright.StudyRight</title>
<polygon fill="white" stroke="none" points="-4,4 -4,-335 363.5,-335 363.5,4 -4,4"/>
<!-- studyRight -->
<g id="node1" class="node"><title>studyRight</title>
<polygon fill="none" stroke="black" points="112,-310 112,-327 210,-327 210,-310 112,-310"/>
<text text-anchor="start" x="115" y="-317" font-family="Times New Roman,serif" text-decoration="underline" font-size="10.00">studyRight :University</text>
<polygon fill="none" stroke="black" points="112,-293 112,-310 210,-310 210,-293 112,-293"/>
<text text-anchor="start" x="124.5" y="-299" font-family="Times New Roman,serif" font-size="10.00">id = &quot;StudyRight&quot;</text>
</g>
<!-- math -->
<g id="node2" class="node"><title>math</title>
<polygon fill="none" stroke="black" points="134,-220.5 134,-237.5 188,-237.5 188,-220.5 134,-220.5"/>
<text text-anchor="start" x="137" y="-227.5" font-family="Times New Roman,serif" text-decoration="underline" font-size="10.00">math :Room</text>
<polygon fill="none" stroke="black" points="134,-192.5 134,-220.5 188,-220.5 188,-192.5 134,-192.5"/>
<text text-anchor="start" x="138" y="-209.5" font-family="Times New Roman,serif" font-size="10.00">credits = 23</text>
<text text-anchor="start" x="138" y="-198.5" font-family="Times New Roman,serif" font-size="10.00">id = &quot;math&quot;</text>
</g>
<!-- studyRight&#45;&gt;math -->
<g id="edge2" class="edge"><title>studyRight&#45;&gt;math</title>
<path fill="none" stroke="black" d="M161,-288.929C161,-275.22 161,-256.936 161,-242.169"/>
<text text-anchor="middle" x="148.5" y="-245.169" font-family="Times New Roman,serif" font-size="10.00">rooms</text>
<text text-anchor="middle" x="154.5" y="-280.929" font-family="Times New Roman,serif" font-size="10.00">uni</text>
</g>
<!-- exam -->
<g id="node3" class="node"><title>exam</title>
<polygon fill="none" stroke="black" points="8,-220.5 8,-237.5 62,-237.5 62,-220.5 8,-220.5"/>
<text text-anchor="start" x="11" y="-227.5" font-family="Times New Roman,serif" text-decoration="underline" font-size="10.00">exam :Room</text>
<polygon fill="none" stroke="black" points="8,-192.5 8,-220.5 62,-220.5 62,-192.5 8,-192.5"/>
<text text-anchor="start" x="12" y="-209.5" font-family="Times New Roman,serif" font-size="10.00">credits = 0</text>
<text text-anchor="start" x="12" y="-198.5" font-family="Times New Roman,serif" font-size="10.00">id = &quot;exam&quot;</text>
</g>
<!-- studyRight&#45;&gt;exam -->
<g id="edge3" class="edge"><title>studyRight&#45;&gt;exam</title>
<path fill="none" stroke="black" d="M133.144,-288.859C118.49,-278.233 100.241,-264.954 84,-253 79.2159,-249.479 74.1801,-245.751 69.2317,-242.077"/>
<text text-anchor="middle" x="56.7317" y="-245.077" font-family="Times New Roman,serif" font-size="10.00">rooms</text>
<text text-anchor="middle" x="126.644" y="-280.859" font-family="Times New Roman,serif" font-size="10.00">uni</text>
</g>
<!-- modeling -->
<g id="node4" class="node"><title>modeling</title>
<polygon fill="none" stroke="black" points="63,-120.5 63,-137.5 134,-137.5 134,-120.5 63,-120.5"/>
<text text-anchor="start" x="66" y="-127.5" font-family="Times New Roman,serif" text-decoration="underline" font-size="10.00">modeling :Room</text>
<polygon fill="none" stroke="black" points="63,-92.5 63,-120.5 134,-120.5 134,-92.5 63,-92.5"/>
<text text-anchor="start" x="66.5" y="-109.5" font-family="Times New Roman,serif" font-size="10.00">credits = 42</text>
<text text-anchor="start" x="66.5" y="-98.5" font-family="Times New Roman,serif" font-size="10.00">id = &quot;modeling&quot;</text>
</g>
<!-- studyRight&#45;&gt;modeling -->
<g id="edge4" class="edge"><title>studyRight&#45;&gt;modeling</title>
<path fill="none" stroke="black" d="M140.952,-288.916C132.174,-278.934 122.613,-266.198 117,-253 101.549,-216.671 98.1221,-170.467 97.6384,-142.21"/>
<text text-anchor="middle" x="85.1384" y="-145.21" font-family="Times New Roman,serif" font-size="10.00">rooms</text>
<text text-anchor="middle" x="140.952" y="-280.916" font-family="Times New Roman,serif" font-size="10.00">uni</text>
</g>
<!-- algebra -->
<g id="node5" class="node"><title>algebra</title>
<polygon fill="none" stroke="black" points="138,-31.5 138,-48.5 202,-48.5 202,-31.5 138,-31.5"/>
<text text-anchor="start" x="141" y="-38.5" font-family="Times New Roman,serif" text-decoration="underline" font-size="10.00">algebra :Room</text>
<polygon fill="none" stroke="black" points="138,-3.5 138,-31.5 202,-31.5 202,-3.5 138,-3.5"/>
<text text-anchor="start" x="142" y="-20.5" font-family="Times New Roman,serif" font-size="10.00">credits = 12</text>
<text text-anchor="start" x="142" y="-9.5" font-family="Times New Roman,serif" font-size="10.00">id = &quot;algebra&quot;</text>
</g>
<!-- studyRight&#45;&gt;algebra -->
<g id="edge5" class="edge"><title>studyRight&#45;&gt;algebra</title>
<path fill="none" stroke="black" d="M182.11,-288.979C191.001,-279.103 200.352,-266.438 205,-253 229.087,-183.358 199.696,-95.8747 181.822,-53.2392"/>
<text text-anchor="middle" x="169.322" y="-56.2392" font-family="Times New Roman,serif" font-size="10.00">rooms</text>
<text text-anchor="middle" x="175.61" y="-280.979" font-family="Times New Roman,serif" font-size="10.00">uni</text>
</g>
<!-- carli -->
<g id="node6" class="node"><title>carli</title>
<polygon fill="none" stroke="black" points="261,-231.5 261,-248.5 352,-248.5 352,-231.5 261,-231.5"/>
<text text-anchor="start" x="280" y="-238.5" font-family="Times New Roman,serif" text-decoration="underline" font-size="10.00">carli :Student</text>
<polygon fill="none" stroke="black" points="261,-181.5 261,-231.5 352,-231.5 352,-181.5 261,-181.5"/>
<text text-anchor="start" x="264" y="-220.5" font-family="Times New Roman,serif" font-size="10.00">birthYear = 1970</text>
<text text-anchor="start" x="264" y="-209.5" font-family="Times New Roman,serif" font-size="10.00">id = &quot;carli&quot;</text>
<text text-anchor="start" x="264" y="-198.5" font-family="Times New Roman,serif" font-size="10.00">name = &quot;Carli&quot;</text>
<text text-anchor="start" x="264" y="-187.5" font-family="Times New Roman,serif" font-size="10.00">studentId = &quot;stud42&quot;</text>
</g>
<!-- studyRight&#45;&gt;carli -->
<g id="edge1" class="edge"><title>studyRight&#45;&gt;carli</title>
<path fill="none" stroke="black" d="M192.463,-288.929C209.954,-277.771 232.197,-263.581 252.352,-250.724"/>
<text text-anchor="middle" x="235.852" y="-253.724" font-family="Times New Roman,serif" font-size="10.00">persons</text>
<text text-anchor="middle" x="198.963" y="-280.929" font-family="Times New Roman,serif" font-size="10.00">uni</text>
</g>
<!-- math&#45;&gt;modeling -->
<g id="edge6" class="edge"><title>math&#45;&gt;modeling</title>
<path fill="none" stroke="black" d="M144.447,-188.752C135.187,-174.347 123.684,-156.453 114.442,-142.076"/>
<text text-anchor="middle" x="126.442" y="-145.076" font-family="Times New Roman,serif" font-size="10.00">doors</text>
<text text-anchor="middle" x="132.447" y="-180.752" font-family="Times New Roman,serif" font-size="10.00">doors</text>
</g>
<!-- math&#45;&gt;algebra -->
<g id="edge7" class="edge"><title>math&#45;&gt;algebra</title>
<path fill="none" stroke="black" d="M162.233,-188.891C163.951,-153.18 167.05,-88.8044 168.768,-53.0995"/>
<text text-anchor="middle" x="156.768" y="-56.0995" font-family="Times New Roman,serif" font-size="10.00">doors</text>
<text text-anchor="middle" x="174.233" y="-180.891" font-family="Times New Roman,serif" font-size="10.00">doors</text>
</g>
<!-- exam&#45;&gt;modeling -->
<g id="edge8" class="edge"><title>exam&#45;&gt;modeling</title>
<path fill="none" stroke="black" d="M51.5525,-188.752C60.8125,-174.347 72.316,-156.453 81.558,-142.076"/>
<text text-anchor="middle" x="69.558" y="-145.076" font-family="Times New Roman,serif" font-size="10.00">doors</text>
<text text-anchor="middle" x="39.5525" y="-180.752" font-family="Times New Roman,serif" font-size="10.00">doors</text>
</g>
<!-- modeling&#45;&gt;algebra -->
<g id="edge9" class="edge"><title>modeling&#45;&gt;algebra</title>
<path fill="none" stroke="black" d="M119.213,-88.8677C128.505,-77.6402 139.387,-64.4906 148.69,-53.2497"/>
<text text-anchor="middle" x="136.69" y="-56.2497" font-family="Times New Roman,serif" font-size="10.00">doors</text>
<text text-anchor="middle" x="107.213" y="-80.8677" font-family="Times New Roman,serif" font-size="10.00">doors</text>
</g>
</g>
</svg>
