<?xml version="1.0" encoding="UTF-8" standalone="no"?>
<!DOCTYPE svg PUBLIC "-//W3C//DTD SVG 1.1//EN"
 "http://www.w3.org/Graphics/SVG/1.1/DTD/svg11.dtd">
<!-- Generated by graphviz version 2.38.0 (20140413.2041)
 -->
<!-- Title: uks.debuggen.studyright.StudyRight Pages: 1 -->
<svg width="474px" height="372px"
 viewBox="0.00 0.00 473.50 372.00" xmlns="http://www.w3.org/2000/svg" xmlns:xlink="http://www.w3.org/1999/xlink">
<g id="graph0" class="graph" transform="scale(1.0 1.0) rotate(0) translate(4 368)">
<title>uks.debuggen.studyright.StudyRight</title>
<polygon fill="white" stroke="none" points="-4,4 -4,-368 469.5,-368 469.5,4 -4,4"/>
<!-- studyRight -->
<g id="node1" class="node"><title>studyRight</title>
<polygon fill="none" stroke="black" points="112,-332 112,-349 210,-349 210,-332 112,-332"/>
<text text-anchor="start" x="115" y="-339" font-family="Times New Roman,serif" text-decoration="underline" font-size="10.00">studyRight :University</text>
<polygon fill="none" stroke="black" points="112,-315 112,-332 210,-332 210,-315 112,-315"/>
<text text-anchor="start" x="124.5" y="-321" font-family="Times New Roman,serif" font-size="10.00">id = &quot;StudyRight&quot;</text>
</g>
<!-- math -->
<g id="node2" class="node"><title>math</title>
<polygon fill="none" stroke="black" points="134,-231.5 134,-248.5 188,-248.5 188,-231.5 134,-231.5"/>
<text text-anchor="start" x="137" y="-238.5" font-family="Times New Roman,serif" text-decoration="underline" font-size="10.00">math :Room</text>
<polygon fill="none" stroke="black" points="134,-203.5 134,-231.5 188,-231.5 188,-203.5 134,-203.5"/>
<text text-anchor="start" x="138" y="-220.5" font-family="Times New Roman,serif" font-size="10.00">credits = 23</text>
<text text-anchor="start" x="138" y="-209.5" font-family="Times New Roman,serif" font-size="10.00">id = &quot;math&quot;</text>
</g>
<!-- studyRight&#45;&gt;math -->
<g id="edge2" class="edge"><title>studyRight&#45;&gt;math</title>
<path fill="none" stroke="black" d="M161,-310.552C161,-294.056 161,-270.764 161,-253.043"/>
<text text-anchor="middle" x="148.5" y="-256.043" font-family="Times New Roman,serif" font-size="10.00">rooms</text>
<text text-anchor="middle" x="154.5" y="-302.552" font-family="Times New Roman,serif" font-size="10.00">uni</text>
</g>
<!-- exam -->
<g id="node3" class="node"><title>exam</title>
<polygon fill="none" stroke="black" points="8,-231.5 8,-248.5 62,-248.5 62,-231.5 8,-231.5"/>
<text text-anchor="start" x="11" y="-238.5" font-family="Times New Roman,serif" text-decoration="underline" font-size="10.00">exam :Room</text>
<polygon fill="none" stroke="black" points="8,-203.5 8,-231.5 62,-231.5 62,-203.5 8,-203.5"/>
<text text-anchor="start" x="12" y="-220.5" font-family="Times New Roman,serif" font-size="10.00">credits = 0</text>
<text text-anchor="start" x="12" y="-209.5" font-family="Times New Roman,serif" font-size="10.00">id = &quot;exam&quot;</text>
</g>
<!-- studyRight&#45;&gt;exam -->
<g id="edge3" class="edge"><title>studyRight&#45;&gt;exam</title>
<path fill="none" stroke="black" d="M136.407,-310.798C116.354,-294.326 87.9058,-270.958 66.2422,-253.163"/>
<text text-anchor="middle" x="53.7422" y="-256.163" font-family="Times New Roman,serif" font-size="10.00">rooms</text>
<text text-anchor="middle" x="129.907" y="-302.798" font-family="Times New Roman,serif" font-size="10.00">uni</text>
</g>
<!-- modeling -->
<g id="node4" class="node"><title>modeling</title>
<polygon fill="none" stroke="black" points="63,-126 63,-143 134,-143 134,-126 63,-126"/>
<text text-anchor="start" x="66" y="-133" font-family="Times New Roman,serif" text-decoration="underline" font-size="10.00">modeling :Room</text>
<polygon fill="none" stroke="black" points="63,-98 63,-126 134,-126 134,-98 63,-98"/>
<text text-anchor="start" x="66.5" y="-115" font-family="Times New Roman,serif" font-size="10.00">credits = 42</text>
<text text-anchor="start" x="66.5" y="-104" font-family="Times New Roman,serif" font-size="10.00">id = &quot;modeling&quot;</text>
</g>
<!-- studyRight&#45;&gt;modeling -->
<g id="edge4" class="edge"><title>studyRight&#45;&gt;modeling</title>
<path fill="none" stroke="black" d="M144.331,-310.894C134.744,-298.224 123.372,-281.08 117,-264 102.526,-225.199 98.8423,-176.803 98.0357,-147.705"/>
<text text-anchor="middle" x="85.5357" y="-150.705" font-family="Times New Roman,serif" font-size="10.00">rooms</text>
<text text-anchor="middle" x="141.081" y="-302.894" font-family="Times New Roman,serif" font-size="10.00">uni</text>
</g>
<!-- algebra -->
<g id="node5" class="node"><title>algebra</title>
<polygon fill="none" stroke="black" points="138,-31.5 138,-48.5 202,-48.5 202,-31.5 138,-31.5"/>
<text text-anchor="start" x="141" y="-38.5" font-family="Times New Roman,serif" text-decoration="underline" font-size="10.00">algebra :Room</text>
<polygon fill="none" stroke="black" points="138,-3.5 138,-31.5 202,-31.5 202,-3.5 138,-3.5"/>
<text text-anchor="start" x="142" y="-20.5" font-family="Times New Roman,serif" font-size="10.00">credits = 12</text>
<text text-anchor="start" x="142" y="-9.5" font-family="Times New Roman,serif" font-size="10.00">id = &quot;algebra&quot;</text>
</g>
<!-- studyRight&#45;&gt;algebra -->
<g id="edge5" class="edge"><title>studyRight&#45;&gt;algebra</title>
<path fill="none" stroke="black" d="M178.718,-310.881C188.552,-298.339 199.818,-281.333 205,-264 227.294,-189.438 198.155,-97.2289 180.965,-53.2215"/>
<text text-anchor="middle" x="168.465" y="-56.2215" font-family="Times New Roman,serif" font-size="10.00">rooms</text>
<text text-anchor="middle" x="172.218" y="-302.881" font-family="Times New Roman,serif" font-size="10.00">uni</text>
</g>
<!-- carli -->
<g id="node6" class="node"><title>carli</title>
<polygon fill="none" stroke="black" points="261,-242.5 261,-259.5 352,-259.5 352,-242.5 261,-242.5"/>
<text text-anchor="start" x="280" y="-249.5" font-family="Times New Roman,serif" text-decoration="underline" font-size="10.00">carli :Student</text>
<polygon fill="none" stroke="black" points="261,-192.5 261,-242.5 352,-242.5 352,-192.5 261,-192.5"/>
<text text-anchor="start" x="264" y="-231.5" font-family="Times New Roman,serif" font-size="10.00">birthYear = 1970</text>
<text text-anchor="start" x="264" y="-220.5" font-family="Times New Roman,serif" font-size="10.00">id = &quot;carli&quot;</text>
<text text-anchor="start" x="264" y="-209.5" font-family="Times New Roman,serif" font-size="10.00">name = &quot;Carli&quot;</text>
<text text-anchor="start" x="264" y="-198.5" font-family="Times New Roman,serif" font-size="10.00">studentId = &quot;stud42&quot;</text>
</g>
<!-- studyRight&#45;&gt;carli -->
<g id="edge1" class="edge"><title>studyRight&#45;&gt;carli</title>
<path fill="none" stroke="black" d="M189.302,-310.798C207.846,-297.562 232.628,-279.873 254.584,-264.2"/>
<text text-anchor="middle" x="238.084" y="-267.2" font-family="Times New Roman,serif" font-size="10.00">persons</text>
<text text-anchor="middle" x="195.802" y="-302.798" font-family="Times New Roman,serif" font-size="10.00">uni</text>
</g>
<!-- math&#45;&gt;modeling -->
<g id="edge6" class="edge"><title>math&#45;&gt;modeling</title>
<path fill="none" stroke="black" d="M145.427,-199.916C135.735,-183.992 123.312,-163.584 113.612,-147.649"/>
<text text-anchor="middle" x="125.612" y="-150.649" font-family="Times New Roman,serif" font-size="10.00">doors</text>
<text text-anchor="middle" x="133.427" y="-191.916" font-family="Times New Roman,serif" font-size="10.00">doors</text>
</g>
<!-- math&#45;&gt;algebra -->
<g id="edge7" class="edge"><title>math&#45;&gt;algebra</title>
<path fill="none" stroke="black" d="M162.177,-199.615C163.906,-161.564 167.116,-90.9528 168.837,-53.0776"/>
<text text-anchor="middle" x="180.837" y="-56.0776" font-family="Times New Roman,serif" font-size="10.00">doors</text>
<text text-anchor="middle" x="174.177" y="-191.615" font-family="Times New Roman,serif" font-size="10.00">doors</text>
</g>
<!-- exam&#45;&gt;modeling -->
<g id="edge8" class="edge"><title>exam&#45;&gt;modeling</title>
<path fill="none" stroke="black" d="M50.573,-199.916C60.2655,-183.992 72.688,-163.584 82.3878,-147.649"/>
<text text-anchor="middle" x="70.3878" y="-150.649" font-family="Times New Roman,serif" font-size="10.00">doors</text>
<text text-anchor="middle" x="38.573" y="-191.916" font-family="Times New Roman,serif" font-size="10.00">doors</text>
</g>
<!-- modeling&#45;&gt;algebra -->
<g id="edge9" class="edge"><title>modeling&#45;&gt;algebra</title>
<path fill="none" stroke="black" d="M118.056,-94.2336C128.042,-81.4039 140.08,-65.9389 150.052,-53.1282"/>
<text text-anchor="middle" x="138.052" y="-56.1282" font-family="Times New Roman,serif" font-size="10.00">doors</text>
<text text-anchor="middle" x="106.056" y="-86.2336" font-family="Times New Roman,serif" font-size="10.00">doors</text>
</g>
<!-- allTours -->
<g id="node7" class="node"><title>allTours</title>
<polygon fill="none" stroke="black" points="259,-332 259,-349 338,-349 338,-332 259,-332"/>
<text text-anchor="start" x="262" y="-339" font-family="Times New Roman,serif" text-decoration="underline" font-size="10.00">allTours :TourList</text>
<polygon fill="none" stroke="black" points="259,-315 259,-332 338,-332 338,-315 259,-315"/>
<text text-anchor="start" x="268.5" y="-321" font-family="Times New Roman,serif" font-size="10.00">id = &quot;allTours&quot;</text>
</g>
<!-- s01 -->
<g id="node8" class="node"><title>s01</title>
<polygon fill="none" stroke="black" points="386,-343 386,-360 454,-360 454,-343 386,-343"/>
<text text-anchor="start" x="401.5" y="-350" font-family="Times New Roman,serif" text-decoration="underline" font-size="10.00">s01 :Stop</text>
<polygon fill="none" stroke="black" points="386,-304 386,-343 454,-343 454,-304 386,-304"/>
<text text-anchor="start" x="389" y="-332" font-family="Times New Roman,serif" font-size="10.00">id = &quot;s01&quot;</text>
<text text-anchor="start" x="389" y="-321" font-family="Times New Roman,serif" font-size="10.00">motivation = 77</text>
<text text-anchor="start" x="389" y="-310" font-family="Times New Roman,serif" font-size="10.00">room = null</text>
</g>
<!-- s02 -->
<g id="node9" class="node"><title>s02</title>
<polygon fill="none" stroke="black" points="386,-237.5 386,-254.5 454,-254.5 454,-237.5 386,-237.5"/>
<text text-anchor="start" x="401.5" y="-244.5" font-family="Times New Roman,serif" text-decoration="underline" font-size="10.00">s02 :Stop</text>
<polygon fill="none" stroke="black" points="386,-198.5 386,-237.5 454,-237.5 454,-198.5 386,-198.5"/>
<text text-anchor="start" x="389" y="-226.5" font-family="Times New Roman,serif" font-size="10.00">id = &quot;s02&quot;</text>
<text text-anchor="start" x="389" y="-215.5" font-family="Times New Roman,serif" font-size="10.00">motivation = 54</text>
<text text-anchor="start" x="389" y="-204.5" font-family="Times New Roman,serif" font-size="10.00">room = &quot;math&quot;</text>
</g>
<!-- s01&#45;&gt;s02 -->
<g id="edge10" class="edge"><title>s01&#45;&gt;s02</title>
<path fill="none" stroke="black" d="M420,-299.947C420,-286.847 420,-271.629 420,-258.531"/>
<text text-anchor="middle" x="400" y="-261.531" font-family="Times New Roman,serif" font-size="10.00">nextStops</text>
<text text-anchor="middle" x="392.5" y="-291.947" font-family="Times New Roman,serif" font-size="10.00">previousStop</text>
</g>
<!-- s03 -->
<g id="node10" class="node"><title>s03</title>
<polygon fill="none" stroke="black" points="383,-132 383,-149 458,-149 458,-132 383,-132"/>
<text text-anchor="start" x="402" y="-139" font-family="Times New Roman,serif" text-decoration="underline" font-size="10.00">s03 :Stop</text>
<polygon fill="none" stroke="black" points="383,-93 383,-132 458,-132 458,-93 383,-93"/>
<text text-anchor="start" x="386" y="-121" font-family="Times New Roman,serif" font-size="10.00">id = &quot;s03&quot;</text>
<text text-anchor="start" x="386" y="-110" font-family="Times New Roman,serif" font-size="10.00">motivation = 42</text>
<text text-anchor="start" x="386" y="-99" font-family="Times New Roman,serif" font-size="10.00">room = &quot;algebra&quot;</text>
</g>
<!-- s02&#45;&gt;s03 -->
<g id="edge11" class="edge"><title>s02&#45;&gt;s03</title>
<path fill="none" stroke="black" d="M420,-194.447C420,-181.347 420,-166.129 420,-153.031"/>
<text text-anchor="middle" x="400" y="-156.031" font-family="Times New Roman,serif" font-size="10.00">nextStops</text>
<text text-anchor="middle" x="392.5" y="-186.447" font-family="Times New Roman,serif" font-size="10.00">previousStop</text>
</g>
</g>
</svg>
