<?xml version="1.0" encoding="UTF-8" standalone="no"?>
<!DOCTYPE svg PUBLIC "-//W3C//DTD SVG 1.1//EN"
 "http://www.w3.org/Graphics/SVG/1.1/DTD/svg11.dtd">
<!-- Generated by graphviz version 2.38.0 (20140413.2041)
 -->
<!-- Title: uks.debuggen.studyright.StudyRight Pages: 1 -->
<svg width="477px" height="383px"
 viewBox="0.00 0.00 477.00 383.00" xmlns="http://www.w3.org/2000/svg" xmlns:xlink="http://www.w3.org/1999/xlink">
<g id="graph0" class="graph" transform="scale(1.0 1.0) rotate(0) translate(4 379)">
<title>uks.debuggen.studyright.StudyRight</title>
<polygon fill="white" stroke="none" points="-4,4 -4,-379 473,-379 473,4 -4,4"/>
<!-- studyRight -->
<g id="node1" class="node"><title>studyRight</title>
<polygon fill="none" stroke="black" points="112,-343 112,-360 210,-360 210,-343 112,-343"/>
<text text-anchor="start" x="115" y="-350" font-family="Times New Roman,serif" text-decoration="underline" font-size="10.00">studyRight :University</text>
<polygon fill="none" stroke="black" points="112,-326 112,-343 210,-343 210,-326 112,-326"/>
<text text-anchor="start" x="124.5" y="-332" font-family="Times New Roman,serif" font-size="10.00">id = &quot;StudyRight&quot;</text>
</g>
<!-- math -->
<g id="node2" class="node"><title>math</title>
<polygon fill="none" stroke="black" points="134,-242.5 134,-259.5 188,-259.5 188,-242.5 134,-242.5"/>
<text text-anchor="start" x="137" y="-249.5" font-family="Times New Roman,serif" text-decoration="underline" font-size="10.00">math :Room</text>
<polygon fill="none" stroke="black" points="134,-214.5 134,-242.5 188,-242.5 188,-214.5 134,-214.5"/>
<text text-anchor="start" x="138" y="-231.5" font-family="Times New Roman,serif" font-size="10.00">credits = 23</text>
<text text-anchor="start" x="138" y="-220.5" font-family="Times New Roman,serif" font-size="10.00">id = &quot;math&quot;</text>
</g>
<!-- studyRight&#45;&gt;math -->
<g id="edge2" class="edge"><title>studyRight&#45;&gt;math</title>
<path fill="none" stroke="black" d="M161,-321.552C161,-305.056 161,-281.764 161,-264.043"/>
<text text-anchor="middle" x="148.5" y="-267.043" font-family="Times New Roman,serif" font-size="10.00">rooms</text>
<text text-anchor="middle" x="154.5" y="-313.552" font-family="Times New Roman,serif" font-size="10.00">uni</text>
</g>
<!-- exam -->
<g id="node3" class="node"><title>exam</title>
<polygon fill="none" stroke="black" points="8,-242.5 8,-259.5 62,-259.5 62,-242.5 8,-242.5"/>
<text text-anchor="start" x="11" y="-249.5" font-family="Times New Roman,serif" text-decoration="underline" font-size="10.00">exam :Room</text>
<polygon fill="none" stroke="black" points="8,-214.5 8,-242.5 62,-242.5 62,-214.5 8,-214.5"/>
<text text-anchor="start" x="12" y="-231.5" font-family="Times New Roman,serif" font-size="10.00">credits = 0</text>
<text text-anchor="start" x="12" y="-220.5" font-family="Times New Roman,serif" font-size="10.00">id = &quot;exam&quot;</text>
</g>
<!-- studyRight&#45;&gt;exam -->
<g id="edge3" class="edge"><title>studyRight&#45;&gt;exam</title>
<path fill="none" stroke="black" d="M136.407,-321.798C116.354,-305.326 87.9058,-281.958 66.2422,-264.163"/>
<text text-anchor="middle" x="53.7422" y="-267.163" font-family="Times New Roman,serif" font-size="10.00">rooms</text>
<text text-anchor="middle" x="129.907" y="-313.798" font-family="Times New Roman,serif" font-size="10.00">uni</text>
</g>
<!-- modeling -->
<g id="node4" class="node"><title>modeling</title>
<polygon fill="none" stroke="black" points="63,-137 63,-154 134,-154 134,-137 63,-137"/>
<text text-anchor="start" x="66" y="-144" font-family="Times New Roman,serif" text-decoration="underline" font-size="10.00">modeling :Room</text>
<polygon fill="none" stroke="black" points="63,-109 63,-137 134,-137 134,-109 63,-109"/>
<text text-anchor="start" x="66.5" y="-126" font-family="Times New Roman,serif" font-size="10.00">credits = 42</text>
<text text-anchor="start" x="66.5" y="-115" font-family="Times New Roman,serif" font-size="10.00">id = &quot;modeling&quot;</text>
</g>
<!-- studyRight&#45;&gt;modeling -->
<g id="edge4" class="edge"><title>studyRight&#45;&gt;modeling</title>
<path fill="none" stroke="black" d="M144.331,-321.894C134.744,-309.224 123.372,-292.08 117,-275 102.526,-236.199 98.8423,-187.803 98.0357,-158.705"/>
<text text-anchor="middle" x="85.5357" y="-161.705" font-family="Times New Roman,serif" font-size="10.00">rooms</text>
<text text-anchor="middle" x="141.081" y="-313.894" font-family="Times New Roman,serif" font-size="10.00">uni</text>
</g>
<!-- algebra -->
<g id="node5" class="node"><title>algebra</title>
<polygon fill="none" stroke="black" points="138,-37 138,-54 202,-54 202,-37 138,-37"/>
<text text-anchor="start" x="141" y="-44" font-family="Times New Roman,serif" text-decoration="underline" font-size="10.00">algebra :Room</text>
<polygon fill="none" stroke="black" points="138,-9 138,-37 202,-37 202,-9 138,-9"/>
<text text-anchor="start" x="142" y="-26" font-family="Times New Roman,serif" font-size="10.00">credits = 12</text>
<text text-anchor="start" x="142" y="-15" font-family="Times New Roman,serif" font-size="10.00">id = &quot;algebra&quot;</text>
</g>
<!-- studyRight&#45;&gt;algebra -->
<g id="edge5" class="edge"><title>studyRight&#45;&gt;algebra</title>
<path fill="none" stroke="black" d="M178.718,-321.881C188.552,-309.339 199.818,-292.333 205,-275 227.923,-198.334 198.112,-103.363 180.798,-58.6111"/>
<text text-anchor="middle" x="168.298" y="-61.6111" font-family="Times New Roman,serif" font-size="10.00">rooms</text>
<text text-anchor="middle" x="172.218" y="-313.881" font-family="Times New Roman,serif" font-size="10.00">uni</text>
</g>
<!-- carli -->
<g id="node6" class="node"><title>carli</title>
<polygon fill="none" stroke="black" points="261,-253.5 261,-270.5 352,-270.5 352,-253.5 261,-253.5"/>
<text text-anchor="start" x="280" y="-260.5" font-family="Times New Roman,serif" text-decoration="underline" font-size="10.00">carli :Student</text>
<polygon fill="none" stroke="black" points="261,-203.5 261,-253.5 352,-253.5 352,-203.5 261,-203.5"/>
<text text-anchor="start" x="264" y="-242.5" font-family="Times New Roman,serif" font-size="10.00">birthYear = 1970</text>
<text text-anchor="start" x="264" y="-231.5" font-family="Times New Roman,serif" font-size="10.00">id = &quot;carli&quot;</text>
<text text-anchor="start" x="264" y="-220.5" font-family="Times New Roman,serif" font-size="10.00">name = &quot;Carli&quot;</text>
<text text-anchor="start" x="264" y="-209.5" font-family="Times New Roman,serif" font-size="10.00">studentId = &quot;stud42&quot;</text>
</g>
<!-- studyRight&#45;&gt;carli -->
<g id="edge1" class="edge"><title>studyRight&#45;&gt;carli</title>
<path fill="none" stroke="black" d="M189.302,-321.798C207.846,-308.562 232.628,-290.873 254.584,-275.2"/>
<text text-anchor="middle" x="238.084" y="-278.2" font-family="Times New Roman,serif" font-size="10.00">persons</text>
<text text-anchor="middle" x="195.802" y="-313.798" font-family="Times New Roman,serif" font-size="10.00">uni</text>
</g>
<!-- math&#45;&gt;modeling -->
<g id="edge6" class="edge"><title>math&#45;&gt;modeling</title>
<path fill="none" stroke="black" d="M145.427,-210.916C135.735,-194.992 123.312,-174.584 113.612,-158.649"/>
<text text-anchor="middle" x="125.612" y="-161.649" font-family="Times New Roman,serif" font-size="10.00">doors</text>
<text text-anchor="middle" x="133.427" y="-202.916" font-family="Times New Roman,serif" font-size="10.00">doors</text>
</g>
<!-- math&#45;&gt;algebra -->
<g id="edge7" class="edge"><title>math&#45;&gt;algebra</title>
<path fill="none" stroke="black" d="M162.14,-210.727C163.871,-171.582 167.144,-97.5836 168.869,-58.5641"/>
<text text-anchor="middle" x="180.869" y="-61.5641" font-family="Times New Roman,serif" font-size="10.00">doors</text>
<text text-anchor="middle" x="174.14" y="-202.727" font-family="Times New Roman,serif" font-size="10.00">doors</text>
</g>
<!-- exam&#45;&gt;modeling -->
<g id="edge8" class="edge"><title>exam&#45;&gt;modeling</title>
<path fill="none" stroke="black" d="M50.573,-210.916C60.2655,-194.992 72.688,-174.584 82.3878,-158.649"/>
<text text-anchor="middle" x="70.3878" y="-161.649" font-family="Times New Roman,serif" font-size="10.00">doors</text>
<text text-anchor="middle" x="38.573" y="-202.916" font-family="Times New Roman,serif" font-size="10.00">doors</text>
</g>
<!-- modeling&#45;&gt;algebra -->
<g id="edge9" class="edge"><title>modeling&#45;&gt;algebra</title>
<path fill="none" stroke="black" d="M116.917,-105.252C127.5,-90.8472 140.647,-72.9529 151.209,-58.5764"/>
<text text-anchor="middle" x="139.209" y="-61.5764" font-family="Times New Roman,serif" font-size="10.00">doors</text>
<text text-anchor="middle" x="104.917" y="-97.2517" font-family="Times New Roman,serif" font-size="10.00">doors</text>
</g>
<!-- allTours -->
<g id="node7" class="node"><title>allTours</title>
<polygon fill="none" stroke="black" points="259,-343 259,-360 338,-360 338,-343 259,-343"/>
<text text-anchor="start" x="262" y="-350" font-family="Times New Roman,serif" text-decoration="underline" font-size="10.00">allTours :TourList</text>
<polygon fill="none" stroke="black" points="259,-326 259,-343 338,-343 338,-326 259,-326"/>
<text text-anchor="start" x="268.5" y="-332" font-family="Times New Roman,serif" font-size="10.00">id = &quot;allTours&quot;</text>
</g>
<!-- s01 -->
<g id="node8" class="node"><title>s01</title>
<polygon fill="none" stroke="black" points="386,-354 386,-371 454,-371 454,-354 386,-354"/>
<text text-anchor="start" x="401.5" y="-361" font-family="Times New Roman,serif" text-decoration="underline" font-size="10.00">s01 :Stop</text>
<polygon fill="none" stroke="black" points="386,-315 386,-354 454,-354 454,-315 386,-315"/>
<text text-anchor="start" x="389" y="-343" font-family="Times New Roman,serif" font-size="10.00">id = &quot;s01&quot;</text>
<text text-anchor="start" x="389" y="-332" font-family="Times New Roman,serif" font-size="10.00">motivation = 77</text>
<text text-anchor="start" x="389" y="-321" font-family="Times New Roman,serif" font-size="10.00">room = null</text>
</g>
<!-- s02 -->
<g id="node9" class="node"><title>s02</title>
<polygon fill="none" stroke="black" points="386,-248.5 386,-265.5 454,-265.5 454,-248.5 386,-248.5"/>
<text text-anchor="start" x="401.5" y="-255.5" font-family="Times New Roman,serif" text-decoration="underline" font-size="10.00">s02 :Stop</text>
<polygon fill="none" stroke="black" points="386,-209.5 386,-248.5 454,-248.5 454,-209.5 386,-209.5"/>
<text text-anchor="start" x="389" y="-237.5" font-family="Times New Roman,serif" font-size="10.00">id = &quot;s02&quot;</text>
<text text-anchor="start" x="389" y="-226.5" font-family="Times New Roman,serif" font-size="10.00">motivation = 54</text>
<text text-anchor="start" x="389" y="-215.5" font-family="Times New Roman,serif" font-size="10.00">room = &quot;math&quot;</text>
</g>
<!-- s01&#45;&gt;s02 -->
<g id="edge10" class="edge"><title>s01&#45;&gt;s02</title>
<path fill="none" stroke="black" d="M420,-310.947C420,-297.847 420,-282.629 420,-269.531"/>
<text text-anchor="middle" x="400" y="-272.531" font-family="Times New Roman,serif" font-size="10.00">nextStops</text>
<text text-anchor="middle" x="392.5" y="-302.947" font-family="Times New Roman,serif" font-size="10.00">previousStop</text>
</g>
<!-- s03 -->
<g id="node10" class="node"><title>s03</title>
<polygon fill="none" stroke="black" points="383,-143 383,-160 458,-160 458,-143 383,-143"/>
<text text-anchor="start" x="402" y="-150" font-family="Times New Roman,serif" text-decoration="underline" font-size="10.00">s03 :Stop</text>
<polygon fill="none" stroke="black" points="383,-104 383,-143 458,-143 458,-104 383,-104"/>
<text text-anchor="start" x="386" y="-132" font-family="Times New Roman,serif" font-size="10.00">id = &quot;s03&quot;</text>
<text text-anchor="start" x="386" y="-121" font-family="Times New Roman,serif" font-size="10.00">motivation = 42</text>
<text text-anchor="start" x="386" y="-110" font-family="Times New Roman,serif" font-size="10.00">room = &quot;algebra&quot;</text>
</g>
<!-- s02&#45;&gt;s03 -->
<g id="edge11" class="edge"><title>s02&#45;&gt;s03</title>
<path fill="none" stroke="black" d="M420,-205.447C420,-192.347 420,-177.129 420,-164.031"/>
<text text-anchor="middle" x="400" y="-167.031" font-family="Times New Roman,serif" font-size="10.00">nextStops</text>
<text text-anchor="middle" x="392.5" y="-197.447" font-family="Times New Roman,serif" font-size="10.00">previousStop</text>
</g>
<!-- s05 -->
<g id="node11" class="node"><title>s05</title>
<polygon fill="none" stroke="black" points="379,-43 379,-60 461,-60 461,-43 379,-43"/>
<text text-anchor="start" x="401.5" y="-50" font-family="Times New Roman,serif" text-decoration="underline" font-size="10.00">s05 :Stop</text>
<polygon fill="none" stroke="black" points="379,-4 379,-43 461,-43 461,-4 379,-4"/>
<text text-anchor="start" x="382" y="-32" font-family="Times New Roman,serif" font-size="10.00">id = &quot;s05&quot;</text>
<text text-anchor="start" x="382" y="-21" font-family="Times New Roman,serif" font-size="10.00">motivation = 0</text>
<text text-anchor="start" x="382" y="-10" font-family="Times New Roman,serif" font-size="10.00">room = &quot;modeling&quot;</text>
</g>
<!-- s03&#45;&gt;s05 -->
<g id="edge12" class="edge"><title>s03&#45;&gt;s05</title>
<path fill="none" stroke="black" d="M420,-99.9922C420,-88.5527 420,-75.5938 420,-64.1425"/>
<text text-anchor="middle" x="400" y="-67.1425" font-family="Times New Roman,serif" font-size="10.00">nextStops</text>
<text text-anchor="middle" x="392.5" y="-91.9922" font-family="Times New Roman,serif" font-size="10.00">previousStop</text>
</g>
</g>
</svg>
